<mxfile host="65bd71144e">
    <diagram id="TD2CkqBu4uPu_GXzmTGV" name="Page-1">
        <mxGraphModel dx="384" dy="330" grid="1" gridSize="10" guides="1" tooltips="1" connect="1" arrows="1" fold="1" page="1" pageScale="1" pageWidth="850" pageHeight="1100" math="0" shadow="0">
            <root>
                <mxCell id="0"/>
                <mxCell id="1" parent="0"/>
                <mxCell id="59" value="" style="group;glass=1;shadow=1;strokeColor=#f0f0f0;container=0;" parent="1" vertex="1" connectable="0">
                    <mxGeometry x="160" y="370" width="420" height="646.1399999999999" as="geometry"/>
                </mxCell>
                <mxCell id="102" style="edgeStyle=none;html=1;exitX=1;exitY=0;exitDx=0;exitDy=0;" parent="1" source="101" edge="1">
                    <mxGeometry relative="1" as="geometry">
                        <mxPoint x="511.19" y="450" as="targetPoint"/>
                    </mxGeometry>
                </mxCell>
                <mxCell id="103" style="edgeStyle=none;html=1;exitX=0;exitY=1;exitDx=0;exitDy=0;" parent="1" source="101" edge="1">
                    <mxGeometry relative="1" as="geometry">
                        <mxPoint x="101.19" y="800" as="targetPoint"/>
                    </mxGeometry>
                </mxCell>
                <mxCell id="104" style="edgeStyle=none;html=1;exitX=0;exitY=0;exitDx=0;exitDy=0;" parent="1" source="101" edge="1">
                    <mxGeometry relative="1" as="geometry">
                        <mxPoint x="51.19" y="410" as="targetPoint"/>
                    </mxGeometry>
                </mxCell>
                <mxCell id="105" style="edgeStyle=none;html=1;exitX=1;exitY=1;exitDx=0;exitDy=0;startArrow=none;" parent="1" source="110" edge="1">
                    <mxGeometry relative="1" as="geometry">
                        <mxPoint x="501.19" y="850" as="targetPoint"/>
                    </mxGeometry>
                </mxCell>
                <mxCell id="108" value="stack Color" style="text;html=1;strokeColor=none;fillColor=none;align=center;verticalAlign=middle;whiteSpace=wrap;rounded=0;" parent="1" vertex="1">
                    <mxGeometry x="441.19" y="930" width="40" height="20" as="geometry"/>
                </mxCell>
                <mxCell id="109" style="edgeStyle=none;html=1;exitX=0.5;exitY=1;exitDx=0;exitDy=0;" parent="1" source="101" target="108" edge="1">
                    <mxGeometry relative="1" as="geometry"/>
                </mxCell>
                <mxCell id="116" style="edgeStyle=none;html=1;exitX=1;exitY=0.5;exitDx=0;exitDy=0;" parent="1" source="112" target="115" edge="1">
                    <mxGeometry relative="1" as="geometry"/>
                </mxCell>
                <mxCell id="119" style="edgeStyle=none;html=1;exitX=0.75;exitY=1;exitDx=0;exitDy=0;" parent="1" source="112" target="118" edge="1">
                    <mxGeometry relative="1" as="geometry">
                        <Array as="points">
                            <mxPoint x="190" y="250"/>
                        </Array>
                    </mxGeometry>
                </mxCell>
                <mxCell id="124" style="edgeStyle=none;html=1;exitX=0.25;exitY=1;exitDx=0;exitDy=0;" parent="1" source="112" edge="1">
                    <mxGeometry relative="1" as="geometry">
                        <mxPoint x="70" y="310" as="targetPoint"/>
                    </mxGeometry>
                </mxCell>
                <mxCell id="125" style="edgeStyle=none;html=1;exitX=0;exitY=1;exitDx=0;exitDy=0;" parent="1" source="112" edge="1">
                    <mxGeometry relative="1" as="geometry">
                        <mxPoint x="70" y="310" as="targetPoint"/>
                    </mxGeometry>
                </mxCell>
                <mxCell id="112" value="Enemy" style="whiteSpace=wrap;html=1;aspect=fixed;dashed=1;dashPattern=1 1;strokeWidth=6;fillColor=none;" parent="1" vertex="1">
                    <mxGeometry x="40" y="30" width="160" height="160" as="geometry"/>
                </mxCell>
                <mxCell id="113" style="edgeStyle=none;html=1;exitX=1;exitY=1;exitDx=0;exitDy=0;entryX=0.745;entryY=1.049;entryDx=0;entryDy=0;entryPerimeter=0;" parent="1" edge="1">
                    <mxGeometry relative="1" as="geometry">
                        <mxPoint x="161.21320343559637" y="211.21320343559626" as="sourcePoint"/>
                        <mxPoint x="154.70000000000005" y="222.93999999999994" as="targetPoint"/>
                    </mxGeometry>
                </mxCell>
                <mxCell id="114" value="Bullet" style="ellipse;whiteSpace=wrap;html=1;aspect=fixed;fillColor=#d80073;strokeColor=#A50040;fontColor=#ffffff;" parent="1" vertex="1">
                    <mxGeometry x="40" y="100" width="60" height="60" as="geometry"/>
                </mxCell>
                <mxCell id="115" value="&lt;font style=&quot;font-size: 21px&quot;&gt;&lt;div style=&quot;color: rgb(212 , 212 , 212) ; background-color: rgb(30 , 30 , 30) ; font-family: &amp;#34;consolas&amp;#34; , &amp;#34;courier new&amp;#34; , monospace ; font-size: 14px ; line-height: 19px&quot;&gt;&lt;div&gt;&lt;span style=&quot;color: #9cdcfe&quot;&gt;b&lt;/span&gt;.&lt;span style=&quot;color: #9cdcfe&quot;&gt;position&lt;/span&gt;.&lt;span style=&quot;color: #9cdcfe&quot;&gt;dX&lt;/span&gt; + &lt;span style=&quot;color: #9cdcfe&quot;&gt;b&lt;/span&gt;.&lt;span style=&quot;color: #9cdcfe&quot;&gt;radius&lt;/span&gt; &amp;gt;= &lt;span style=&quot;color: #9cdcfe&quot;&gt;enemyShip&lt;/span&gt;.&lt;span style=&quot;color: #9cdcfe&quot;&gt;position2d&lt;/span&gt;.&lt;span style=&quot;color: #9cdcfe&quot;&gt;dX&lt;/span&gt; &amp;amp;&amp;amp;&lt;/div&gt;&lt;div&gt;&amp;nbsp; &amp;nbsp; &amp;nbsp; &amp;nbsp; &amp;nbsp; &amp;nbsp; &amp;nbsp; &lt;span style=&quot;color: #9cdcfe&quot;&gt;b&lt;/span&gt;.&lt;span style=&quot;color: #9cdcfe&quot;&gt;position&lt;/span&gt;.&lt;span style=&quot;color: #9cdcfe&quot;&gt;dX&lt;/span&gt; &amp;lt;= &lt;span style=&quot;color: #9cdcfe&quot;&gt;enemyShip&lt;/span&gt;.&lt;span style=&quot;color: #9cdcfe&quot;&gt;position2d&lt;/span&gt;.&lt;span style=&quot;color: #9cdcfe&quot;&gt;dX&lt;/span&gt; + &lt;span style=&quot;color: #9cdcfe&quot;&gt;enemyShip&lt;/span&gt;.&lt;span style=&quot;color: #9cdcfe&quot;&gt;size&lt;/span&gt;.&lt;span style=&quot;color: #9cdcfe&quot;&gt;width&lt;/span&gt; &lt;/div&gt;&lt;/div&gt;&lt;/font&gt;" style="text;html=1;align=center;verticalAlign=middle;resizable=0;points=[];autosize=1;strokeColor=none;" parent="1" vertex="1">
                    <mxGeometry x="58.81" y="20" width="610" height="40" as="geometry"/>
                </mxCell>
                <mxCell id="118" value="&lt;font style=&quot;font-size: 21px&quot;&gt;&lt;div style=&quot;color: rgb(212 , 212 , 212) ; background-color: rgb(30 , 30 , 30) ; font-family: &amp;#34;consolas&amp;#34; , &amp;#34;courier new&amp;#34; , monospace ; font-size: 14px ; line-height: 19px&quot;&gt;&amp;nbsp;&lt;span style=&quot;color: #9cdcfe&quot;&gt;b&lt;/span&gt;.&lt;span style=&quot;color: #9cdcfe&quot;&gt;position&lt;/span&gt;.&lt;span style=&quot;color: #9cdcfe&quot;&gt;dY&lt;/span&gt; &amp;lt;= &lt;span style=&quot;color: #9cdcfe&quot;&gt;enemyShip&lt;/span&gt;.&lt;span style=&quot;color: #9cdcfe&quot;&gt;position2d&lt;/span&gt;.&lt;span style=&quot;color: #9cdcfe&quot;&gt;dY&lt;/span&gt;&lt;/div&gt;&lt;/font&gt;" style="text;html=1;align=center;verticalAlign=middle;resizable=0;points=[];autosize=1;strokeColor=none;" parent="1" vertex="1">
                    <mxGeometry x="210" y="190" width="330" height="20" as="geometry"/>
                </mxCell>
                <mxCell id="122" style="edgeStyle=none;html=1;" parent="1" source="121" edge="1">
                    <mxGeometry relative="1" as="geometry">
                        <mxPoint x="10" y="220" as="targetPoint"/>
                    </mxGeometry>
                </mxCell>
                <mxCell id="123" style="edgeStyle=none;html=1;" parent="1" source="121" edge="1">
                    <mxGeometry relative="1" as="geometry">
                        <mxPoint x="229.99999999999977" y="10" as="targetPoint"/>
                    </mxGeometry>
                </mxCell>
                <mxCell id="121" value="0" style="text;html=1;align=center;verticalAlign=middle;resizable=0;points=[];autosize=1;strokeColor=none;" parent="1" vertex="1">
                    <mxGeometry width="20" height="20" as="geometry"/>
                </mxCell>
                <mxCell id="41" value="" style="group;strokeColor=#f0f0f0;" parent="1" vertex="1" connectable="0">
                    <mxGeometry x="160" y="380" width="420" height="520" as="geometry"/>
                </mxCell>
                <mxCell id="24" value="" style="ellipse;whiteSpace=wrap;html=1;aspect=fixed;fillColor=#d80073;strokeColor=#A50040;fontColor=#ffffff;" parent="41" vertex="1">
                    <mxGeometry y="200" width="30" height="30" as="geometry"/>
                </mxCell>
                <mxCell id="25" value="a" style="ellipse;whiteSpace=wrap;html=1;aspect=fixed;fillColor=#d80073;strokeColor=#A50040;fontColor=#ffffff;" parent="41" vertex="1">
                    <mxGeometry x="60" y="180" width="30" height="30" as="geometry"/>
                </mxCell>
                <mxCell id="26" value="" style="ellipse;whiteSpace=wrap;html=1;aspect=fixed;fillColor=#d80073;strokeColor=#A50040;fontColor=#ffffff;" parent="41" vertex="1">
                    <mxGeometry x="170" y="170" width="30" height="30" as="geometry"/>
                </mxCell>
                <mxCell id="27" value="" style="ellipse;whiteSpace=wrap;html=1;aspect=fixed;fillColor=#d80073;strokeColor=#A50040;fontColor=#ffffff;" parent="41" vertex="1">
                    <mxGeometry x="211.81" y="70" width="30" height="30" as="geometry"/>
                </mxCell>
                <mxCell id="28" value="" style="ellipse;whiteSpace=wrap;html=1;aspect=fixed;fillColor=#d80073;strokeColor=#A50040;fontColor=#ffffff;" parent="41" vertex="1">
                    <mxGeometry x="260" width="30" height="30" as="geometry"/>
                </mxCell>
                <mxCell id="29" value="" style="ellipse;whiteSpace=wrap;html=1;aspect=fixed;fillColor=#d80073;strokeColor=#A50040;fontColor=#ffffff;" parent="41" vertex="1">
                    <mxGeometry x="260" y="160" width="30" height="30" as="geometry"/>
                </mxCell>
                <mxCell id="30" value="" style="endArrow=none;html=1;entryX=0;entryY=1;entryDx=0;entryDy=0;" parent="41" target="24" edge="1">
                    <mxGeometry width="50" height="50" relative="1" as="geometry">
                        <mxPoint x="80" y="190" as="sourcePoint"/>
                        <mxPoint x="520" y="10" as="targetPoint"/>
                    </mxGeometry>
                </mxCell>
                <mxCell id="99" value="a" style="edgeLabel;html=1;align=center;verticalAlign=middle;resizable=0;points=[];" parent="30" vertex="1" connectable="0">
                    <mxGeometry x="-0.8054" y="1" relative="1" as="geometry">
                        <mxPoint as="offset"/>
                    </mxGeometry>
                </mxCell>
                <mxCell id="31" value="" style="endArrow=none;html=1;" parent="41" target="29" edge="1">
                    <mxGeometry width="50" height="50" relative="1" as="geometry">
                        <mxPoint x="80" y="187" as="sourcePoint"/>
                        <mxPoint x="14.393398282201815" y="235.60660171779818" as="targetPoint"/>
                        <Array as="points">
                            <mxPoint x="190" y="187"/>
                            <mxPoint x="230" y="80"/>
                            <mxPoint x="276" y="20"/>
                        </Array>
                    </mxGeometry>
                </mxCell>
                <mxCell id="100" value="q" style="edgeLabel;html=1;align=center;verticalAlign=middle;resizable=0;points=[];" parent="31" vertex="1" connectable="0">
                    <mxGeometry x="-0.5119" relative="1" as="geometry">
                        <mxPoint as="offset"/>
                    </mxGeometry>
                </mxCell>
                <mxCell id="32" value="" style="ellipse;whiteSpace=wrap;html=1;aspect=fixed;fillColor=#d80073;strokeColor=#A50040;fontColor=#ffffff;" parent="41" vertex="1">
                    <mxGeometry x="30" y="260" width="30" height="30" as="geometry"/>
                </mxCell>
                <mxCell id="33" value="" style="ellipse;whiteSpace=wrap;html=1;aspect=fixed;fillColor=#d80073;strokeColor=#A50040;fontColor=#ffffff;" parent="41" vertex="1">
                    <mxGeometry x="150" y="260" width="30" height="30" as="geometry"/>
                </mxCell>
                <mxCell id="35" value="" style="ellipse;whiteSpace=wrap;html=1;aspect=fixed;fillColor=#d80073;strokeColor=#A50040;fontColor=#ffffff;" parent="41" vertex="1">
                    <mxGeometry x="150" y="330" width="30" height="30" as="geometry"/>
                </mxCell>
                <mxCell id="36" value="" style="ellipse;whiteSpace=wrap;html=1;aspect=fixed;fillColor=#d80073;strokeColor=#A50040;fontColor=#ffffff;" parent="41" vertex="1">
                    <mxGeometry x="210" y="420" width="30" height="30" as="geometry"/>
                </mxCell>
                <mxCell id="37" value="" style="ellipse;whiteSpace=wrap;html=1;aspect=fixed;fillColor=#d80073;strokeColor=#A50040;fontColor=#ffffff;" parent="41" vertex="1">
                    <mxGeometry x="110" y="490" width="30" height="30" as="geometry"/>
                </mxCell>
                <mxCell id="40" style="edgeStyle=none;html=1;exitX=1;exitY=0.5;exitDx=0;exitDy=0;entryX=1;entryY=1;entryDx=0;entryDy=0;" parent="41" source="37" target="37" edge="1">
                    <mxGeometry relative="1" as="geometry"/>
                </mxCell>
                <mxCell id="101" value="radiul canvas&lt;br&gt;change color" style="ellipse;whiteSpace=wrap;html=1;aspect=fixed;" parent="41" vertex="1">
                    <mxGeometry x="260" y="210" width="80" height="80" as="geometry"/>
                </mxCell>
                <mxCell id="110" value="" style="shape=hexagon;perimeter=hexagonPerimeter2;whiteSpace=wrap;html=1;fixedSize=1;rotation=90;fillColor=none;dashed=1;strokeWidth=7;" parent="41" vertex="1">
                    <mxGeometry x="180" y="170" width="240" height="180" as="geometry"/>
                </mxCell>
                <mxCell id="128" value="Enemy&lt;br&gt;Ship" style="shape=switch;whiteSpace=wrap;html=1;fillColor=#FFB366;" parent="41" vertex="1">
                    <mxGeometry x="90" y="50" width="90" height="90" as="geometry"/>
                </mxCell>
                <mxCell id="39" value="" style="ellipse;whiteSpace=wrap;html=1;aspect=fixed;fillColor=#d80073;strokeColor=#A50040;fontColor=#ffffff;" parent="1" vertex="1">
                    <mxGeometry x="441.19" y="830" width="30" height="30" as="geometry"/>
                </mxCell>
                <mxCell id="34" value="" style="endArrow=none;html=1;exitX=0.5;exitY=1;exitDx=0;exitDy=0;" parent="1" source="24" target="39" edge="1">
                    <mxGeometry x="160" y="370" width="50" height="50" as="geometry">
                        <mxPoint x="370" y="430" as="sourcePoint"/>
                        <mxPoint x="190" y="940" as="targetPoint"/>
                        <Array as="points">
                            <mxPoint x="210" y="645"/>
                            <mxPoint x="330" y="645"/>
                            <mxPoint x="330" y="710"/>
                            <mxPoint x="390" y="810"/>
                            <mxPoint x="290" y="870"/>
                        </Array>
                    </mxGeometry>
                </mxCell>
                <mxCell id="3" value="f" style="shape=image;verticalLabelPosition=bottom;labelBackgroundColor=#ffffff;verticalAlign=top;aspect=fixed;imageAspect=0;image=data:image/png,iVBORw0KGgoAAAANSUhEUgAAATgAAAIGCAYAAADA55MqAAAgAElEQVR4Aeydd5sdxZX/9y0RBQKhOKMZZWlGQkjCIoogskAgQOQcBAhlaRQm55wUCQYc1uv1eu1n/VvbGHvBxmZ4DfV7TlWdqlPVp6q771zdGc3tP+qpvnfu3Nj96e/3hOp/u+qqq0Qx5vZ3cN2NNxa/cbGfV+U+8G8F3OYu3G5eXivu3/eueOvSOfFcb6eo23JbVe7kxT4+d/fxtN+2ANwcPLNfc/11Ysd774g3L50T7/70kngHx+eXxEOHPhY3LV1SgG4O/u5pB3s1/r0A3Bzb0Tc98Zh4dXJUvPP5JXa8/fkl8cbFs2Lrs88UkJtjv301AiztMxeAmyM7+bLGDWJPT4eEGkAsy3imu10sWbe2AN0c2QfSDvZq/HsBuCt857762mvFjn3vMkC7KN76PNu45923Cshd4ftBNcIry2cuAHcF79j1t28Ve4f7JdxYmH12Ubz12UXxZobx3FCfqNu2rQDdFbw/ZDngq+0xBeCu0B363vfedhVaBogB6N5IGQ8c+FDccMstBeiu0P2i2gCW9nkLwF1hO/LyzZvF80N9Em4hZWYhdkG88Vl8vP7ZBeGPF8aHxaq77ywgd4XtG2kHezX+vQDcFbQTb3/1JfHaxbMJy6mAlgSZD67XP70g8oy73nmzgNwVtH9UI8DSPnMBuCtgB75p2VKxq/W0ARun0ByYeSB77dMLotSxZ6BHQIY2bUcq/l69xbSz+bcvADfLAbfyrjvES5MjJHZmlZqBGgFaEmTnxWufqvHqp+dFqWPr3ucKyM3yfWU2g2am3lsBuFm8097x+isabGGouUDLB7JXPj0vYsOH4a72ZnH9/PkF6GbxPjNTIJmtr1sAbhburACRR5qOmQSBr9R8qPkgwtsSXp+cF6+Ucbx4blysfeC+AnKzcL+ZrZCZyfdVAG6W7ajLGjYIqEmD7KcEm7afFmq8SovB7OVPzonyjvPing/eKyA3y/admQTJbH3tAnCzaCddfe/d4pULk0GwoTLDmYNaDGQvfXJOTGf4z727r0vcUre8AN0s2odmK2hm6n0VgJslO+eW5/cYsMXUmg81HzpwOwqxS+fES5fOiRczDnisHIHn3XtuTKzb+UABuVmyH80USGbr6xaAmwU75sMnjsj6NAo2VGk40ziaDzUWaAmAnRUvXirHsHCk4Lt737sF5GbBvjRbQTNT76sA3AzulJBM2N3TQeDmlnHE1FoCag7QXJC9cOmsKPdwYamg92RvZ7HW3AzuTzMFkdn8ugXgZmiHBLg9N9JvCnBRqcFMwRZTa9ZmWqDFQLb30lkxnRF7bgTe82dHRd22rYWam6H9ajbDZibeWwG4GdgRazY1ipcvTGq4WdUWApuj1oxSC0MtAbGLZ8VeOSbF3ouT4vmcA/5HDXweF5Qc+DY/VyyoORMHdPGabkdJAbgKA67u9q0abhZsUrXpWjWq2CjYfLXmQ8VAjcAsL8jyPt4Bn1aH9H3dd2h/URhc4f2rAFwBuBmzT7c+/WRStRmwnTe1akmwKbVG4QHbLtTCyuy5i5Oi3IODoaPydNxvVxGXm7H9rYDdVaJQcBU6w25+ZrfsCcVYG2dHs4AtDWoxkD17cVI8e2GitAH/GwGlDzwDu0tnxbNnR8XSTY3FgV6hfa0Am1VxBeAqsNNtfvYZF25GtdkOA4SbsqJJxSbBpuNoPkw4qD17MQyyPRcmRJ4RhSIDPf/9Iewad+8qIFeB/a0AXAG4ih1osKYaqjYu1oZgs8W3bklHCGw+1Dh1lhViz1yYEHRk/b8E+C5OJKwwhR2A7u4P36/Yd18c6PZAr9bvolBwl/GMuvPoQQM3tKQvf5KMtaFqozG2LGDzoRYCE4WX2h4Xz1zIM7IB0AGep+wo6HaeaRLzFtxUgO4y7nvVCjT/cxeAu0w72c5jhyzcPEvqqjbXjtoYm5s0oIqNgoSDmgWahtj5cfHM+XHxdBkGPI+FowWf/z7oe6TvHUG3q79b3LS86GP1D8jidnlVZwG4ywC4LHCLqTaEAMwUDhQaFCgWaACcdJjtPj8u8owYGDng0fdG3zNNUsBn2z02KGpvL67kVUCtvFCj32cBuDIDLhVupFAXLSlnR/OBjYdaHGJjYvf5MfFUYMDf7OCByIGPqjsKOthG2NHPtufsqKi/p7jADT0oi+3yAa8AXBkBlw1ujCW9eNbpLkAAIBBgprAwcTTGciahxkDs3Jh4Ku8gIFTgc6Hnw84qO2Vj6fvHz4WfE+Zb9z5bxOTKuC8WkFSQLABXpp1q57HDbMwN421hS2pjbXjA0+QBBUMIbC7UCNA8iD15bkxMdzhg1NDzgZeAnUxouKBDyEE5C37uza+8WECuTPtjAbgCcGU7mO478JEDN8yUhuCGlpSLteGBnw9sSajFQLbr3JhQY1TsOhcb+LgwGA3wMsBO2VdXjeLnRcjd+WGxUnABp8Kilg1O092Ztr7yogM3WLeNLjrpKzcfbnhgc6qNU2ysWtNKjYNaDGRPnBsVsRGGnwKf/3pJ2FkbS1WdDzqEHKq5+5uOzprfd7r7R/H/5YNVKd9lYVGnYQnKBjcdgOdUGwUDws0kBhiwcUCTEDs7Kp4ox2AVX1LhSdgZVZcEnYrR8bYVoP/A6eMF5Kaxb5YCg7n4PwXgStyJNj+3pwTlxsTbPLihauPABrEuCTcmlkbVVghoj58dFckxIh4/yw3usQwkE8BzYceBjn62kJqTkDtzooBcifvnXIRVKZ+pAFwJO9DGXY+xcENrytvS/HBDxRYCm6/WfIVmYWYB9tjZEVHKcCFo4ee8pgM7HnQ0IYGgQzWHCtZa1knxaHebuH7+jQXoSthPSwHCXPufAnA5d5zaWzeJly9OSsDZ9ivVNA9JhWnBjZR9INxQsYESwpgXBZuv1nyosTCbHBGPTY6IR1MGPEYOBooWeDzsrKK07xvePyo6/HwIOZhZNXdxUjwx0F1ALud+OtdAVernKQCXY8eBa5bCSrzYPI8JBVRuqmHeNsurhAKv3FCthC0pb0cRHBRsUailQCwNctzfOegp4CnYUVWH7xegjIC2kINiYhWfQ9AVkJvZoHypIJmt/1cALiPg5t2yQOydGPHgRjKmskPBh5st4DXZUlK068MND3aaREAooGoLgc1RaizUhsUjk9MfPvB82LGgI9YVP09MzRWQKyBXLmAWgMsAOLhAzJ7BXgduqN64WrdgKUhWuBG1g2ADJYTKiCo2CjYfPhzQHp4cFqUM7rn816Ow40AXV3OFkivXQV08jz1BFIDLALjHW0+bBSszxd1I61Vu5cbALana3EQBBY0PIgdmE8PiYT0emhgWWQY+3swakP7r0PeQFXSo5nzLWthVe4AWsJred1EALgVwDzUdlddRyBN3ww4FCjfIDELcLWpLHbipDoOYaqNQocAxUEvAbEg8NDGdoaAYgx19Txzo8POgmisFcvC9FomH6R341QLOAnARwG1/6zXnIjF4dXmTVJBZUz/uppIK5YebVW0UIgmwRaC2c2JITGck4WgVIUCVvhf6HtFGo231IYcJiDxKDr7f+08WHQ/VAqpSP2cBuADgGnc9ruF2wYm9AdwQcLQkhIu74XURbMbULjrpJBRSlVsSbhQmUrE5YFMqjYPZgxNDQo7xIfFg1hEAowVeOuhcNUeyrSYBQbKsZqkm+33RxAPWyQHkdhw7VNTIBfbhUqEwl/6vAByzcyzfukW8clFdmNm1ppGsaYa4G8aWYnDDeBsmElD9ACBQFSHcsoLNBdmgeHB8UDyQccBj1SBA9IBnQTdkYnxU0T06OWzeO34eR815kIspOTxZSMjplUjuPbi/gByzH88lUJX6WQrAeTvGjYsXihcmRlxr+ul5kZ41TVpTPBhl3E0X8WaHWzbVphIFScVmoZYOtPvHBwUdMfj5wKMq0YJOKzovIYGAZiF3Flc1UUrOQs7PrtrVSAByGAq458CHBeS8fblUKMyl/ysA5+0Uzw71idc/vRBNLKRaU9JfyiUVsDsBA+yyBESXgSjlFoabq9riYPNBRSFWyrb/fI6yI6qOAx2qzijkgkrOQo5r60LI1WzbUkDO25/nEqxK+SwF4MgO8eCRg+L1zxTcXvv0vIy90bIQW/PmJhZo1hSXPbLqzcaRQL1xcMMat6xwQ9VG1RNVbBREDsjGBsV9cgyI+8byjfvH4ioPYUffkwKdVXMJyEErmGn013V+GnIIf6rk0OKH4nF3HDso5tcXF7IpBQRz9X8KwGnALbp1o3hqoKcE9ZbfmuLBi6USkFUsFW42YeDG1QzYAkDbMTYgsgwOhCHYIeQAtgg6VHOytIRkWo2SYyCH3wt+TwA5bNK3kEta1Z8cOSAa3npN3FizrFBy5MQ9V+GV5XMVgLvqKjG/vk40vPuGuO9MkwZcRvXmJRZo1pRaUy7uhh0KWDIBgMPYFB78qHjQliIsEB5KtWUDWwxm944NCH+EHu8Dz4CUJC0QdPg+YaZqDj8Xfk783DTxkICczKzyVhWzqtsO7xeN770l1r74vJi3eHEBuQJyouoBd/2CBWLti8+Jxn1vi9sP7xevfnLedi14F2lOxt7i6g3VRsiaUrjBwQ0HOh70CIGscDOg8RQbBZWFWL+4dzTjGOs38KPPBdsUdvj61B5LACdic8qy4ufDz2shZ1vSFOSSSQf8XsGqYihg9+SI2HLwQ9H4/tui8f23xOo9u8W1N9xQQK7KIVf1gFux6zHRuO8dOW796H2xe7g/UffGxt589eYnFpisKVouOHDdcpDscENLSkEi4ZIGNgK0e0b7Rd5hgKjVHoUdgo5aV3x/5YAcfm8xq/pIf5fY/PE+DTiA3Nui7uEHC8AVgKvelo9ld99p4Nb4wTsCxoPtzSq5QK5G76/zRpdBwgwe2CRUE6AsUGX46o1aUyfupuvcUNlwys2HG6ommjhA8Bi1psHmA+3u0X6RZfj/B7cl7LSyw9dDyMGM78tCDkpV/LicavrHz0uVXC6rqq/YtbOnXWz88D39eyrAAeSW3rm9gFwVQ65qFdwtG9arg0GDrfGDdwWM2w58aADndy3QCzU7mdOoelOLPKIKkepNXxshGXdT7U754KasIoIGZgk3RqW5QOsTd4/2ibsCA/6mhgtCCrwY6LJAjks8YMdDEnIxqzoh7m09JU9QqMbVrEC3sLGhgFyVQq4qATdv8SKx/vWXJdAQbI0fvitgbNq/T+wZH3ILe8lab7QlK796sw30VL2hegE1Y+EGje1K9YSVmws3BBuAB0HkQ+2ukT5RyvBhh89vFZ3NyqKaQ8vqKDn9mTBhQiGH30MiHueXjvgJhwvjYtvRg/r3VEqcgq7hnTfE/LqifCRL1nGuPaYqAbfiycct3DTYGsHe6PFgR7PsNw31nDrq7eKEQHua7FiIqTddzMtYU7/ODewdQgKVEUIElRvCDcFDwSZVGgHbnSN9Is/wgUhhh6+Hag7fD76/JORUL2yWzGoeFbcFMqjwW2oljiEHBN2aF54V1918U6HkqkzJVR3glt19hzoIfLB99J5o1OO2Q/tNQ72Kv5HCXia5kC325qo3VClKtSStKZZYyCC9LsHICzcKNh9od4z0iTtGelNGEoQUdgg6hJyv5mKQw89nyke8Gjn8fkDpYrYZ7D1afSiYxvKbJyeGxeYDH+oTlFLiFnQAPZVEqn/i0QJwBeDmbtJhwfp16iwv4aYVGwFb40fvCzn2vy+eGR8SMnuasKd8aUiy7o1Xb+nW1LZfZYObCvojZJRyszaUgi0BteFesT0w7hhOwo8+F4IOIQevi+9BqTllWQ3kdL8rKFG/Tg4gF7KqWVTcQ/1dYhNkUOG3NEqcB13NvXcXkKsiyFWNgrt+4UKxDuJueAAYsFmoNe5/X6ixT9zbckoCzq99c+ypl1wIZ07D6g2ziBB7S7OmCAu0gfdCJlODBS0pp9qoUgsBLe1+CrwE6GRCQiUjKOTwfeL7RgVqIOfE45L1cTbhEGjj0iruntbT6sRkftMY6N4Ri267tYBclUCuagAn690AbuYg4MHWuH+faPx4n7j10EfihYuT4sVLSXsaSy6gbQILhXbKzZwma95sYsGWUiTibrrODaFBY24+3CiAEG4UYD8Z7hV29IifDHPDPob+rwWdta9WzWWDHMYT4TNSq1qKioMWrm0nDqkTEypw8xuHQXfTivoCclUAuaoA3NK7tmcGG8BNjQ/EU6MDBnCx2jc/uUAb6kN1bxB7C6k3lTVVLVioelAFAeCywC0MNguz24d7RNqw8HPtLD4/wpSDHLWq8L7hM9CkA7WqJhY3YVcGhu8oEYsjGVXZiH9uTGyC+BucmIwC1yevCOgg6XDtjcUFpeda1tT/PHMecDevW6PhFlBsBmgWbI0HPhAw7mk5KbLWvsXsKe1akAcsyZxmUW8huIEdBPWGthRhg/BB5aXUmgKbAdpQj7h9qEdsCwz4mxmOwrOgQzWHr5sGOfwcAO1SVByXbHhosEdshN8LfkcJueygW/7QA4WKm+Mqbk4D7roFC8S6114yiQN7hkeY4QwHiIIawq3xwIdi06H94vkLExJyoOD8+JufPY3Z01hygcbeEuotYU1tMF9ZU5VQQMiE4CbBFoRat9g21C22DqkZtin4kqBLgZyOyYXicaWouFCy4e620+q3oycqH3S+dcU47IfvisVbbysgN4chN6cBt/yRna5t0fE1akM5sDVC07Ye0OMIKm6vLg/x42+x7KlvT9FuOfZUXr7PxqL82BuqHt6a5oObhZaCGQAtbVDYSdBpW6usqwIdp+QwuwqQY61qDhUXSzbcdvSAVNvyxAQnqbyg2/eOXE3GtzbF7blRTTFnAbdwUyOBGyo1nHnFhlCz80di+5kT4rkLE2LvRVseQhe1jMff3Kb6bPY0GXsziQVSiiGtqS7eBfWGJSC+LUXlhnCjQNsy1C22DIYHfSwHOoAcvh6FXBarmqridF2cqhNUsThQcdSmPjo2qE5EEIPTYYVSQLd67x5xzbx5hZKbg0puTgLu+oW3iHVvvmpjMuasnhFshz4SjWQ8MdLvAi6lPMTPnma2p/IqVxZwedUbwgZjbqC4WLARqN022C3U6BK3DeJwoeeCTj0nqjkHcrJwWGVXJeR8q6oX2cTPxcXiYskG36bu6G4zSluelKYButqd9xeAKwB3ZcjWusceVnDLBTYXagpw+0Xj4f1iR2dL9vibdwlAUBw+4Ez2NIM9NeptzI29oUpS6q1XgIICwBm4gZXUgENAUcVmYaagtnmwS8Dw7wf4ocrD50FowvNTqwqvDzFAjAfCe8QSFrSq+HkAcpghVnVx1qZzhb8Jm3p2RGxpOiIaD37kQg5CC5lAhzWPNuNa1MddGcd3nvDBnFNwCzdvcuMwTPLAWlCItYXBBnCDsfXkUfHM2VEJOYjBYe8pJBlwaSSVYLDdC2z8LTV7atUbWDiAQNbYm1VvuvTDh5sGFVVrCDUzDyjImdsEeEHImQyrjsdFVByNxfkqTpaMkMLfcE2cKvp9ZHTAUdnyhERip9kVnQbdR++Lhn1vixuX1xZKbg4puTkFuHmLFon1b79u6ticuAyc1Z0DgAGbBhqCTc5HPhaNRz4WDw90m0vUIeD8BINb/5Yv/ua3ZSEAOMDRshCZNfXVm7GmKomAyg3VmQHYQJe4NTLwcfh/HOSsVSWZVUbFmYzqWL+ENn6+qE0NxOFAEd/d1SJPPo2H9ucDnUxEkGSEl3Fd9fwz4prrrisgN0cgN6cAV/fEo2y5x3TABnCDsb25Sew5Py4h5wCOrNybAJxZ943vXnDKQ7wVQ1C9KcAl7SnaQABcFvWGyk1Cy0CtU9w60Ck2MQPuB/ht1qrOgZwpKdHxOEbF4ftTNlVZ1ZBN5WvimNYtfQWuR8eHxObjhxTg8KTkg863rjls67IdRb9qHhs4mx87ZwC3aMvmJNwcxfZh8kyPBwedNdAQbI1HPxaNRw+IjccOiseG+4SfQfULfNMSDG78jaz5FgOc029qS0No5tTE3hhrGoIbBdvGgU4Bg94H20nIqZgcjcf5Ki6RUSXJBt+mutnUZBwOvy/saoBEw339XfKkI38j+tvB9nRAR9Tc/JVFK9dsBlfW9zYnADdvyWKx/r03SalAih31D4rDSqUZqAHkoL7KGz9pOVlmwNkDGuvfZOA9En+L2VNaEgIAotYU7aaypBZkEmz9nWIjHR7sfMhRq2oSDlrFoZrEZAMmQyDZgAoOWs1AmSqbqq63qhINgwIKnXGtOD8Op8pshsVPWk9awOEJyf9N84COsa0r9+wubOocsKlzAnD1sIClrINKARvs9P6BgAcIzh7UJOSOHRSNxw6KW5uOiF3jQybJADG46Sk4CrhsCQYEBmZPESiQzQTAIXAk4ExiQSUPEnDr7xSN/R3skMDTis7YVZN0sCoO6+P8jCoCDt4nZlNtHI4CTmVTMwFuckTsHO4Tm8Ceyt+JOTH5vy8p90kkImK2df8+sfgn2wrIXeGQu+IBt2jbFh5u/o7t7/gINJx9sB07IKEGYDPj+EFxX2/HtAHn95/67VkYgMcEA4IBi3sxvoXxt6z2FACHFhSUG8Ktob9D0IH3A+Tw8ZyK820qLRmJA45PNPjN9wkFNzkitrefTihrGUbA3xFn//em+0MsPkfU3Ib33xLgDrLaoeJxs6/M5IoG3A3LlooN+96OZ0f9HR0PAJwzgq0RVMPxQ2LL6ePimfPqepwJBadr4NgSEX3NU4gpVRZwuvRDJhYUsNCWAsgQbBv6OwQMvA1/i6k4aVNJsiERh/PKRfzWLYA32tRQJtUH3IPDfVJFmxOO/9tBvBR/V5zp759qW0k/sgTdPlH3+CMF4K5gFXdFA64OrmlqEgl+2YdnR3GHx9k/OFjFpqCGcGuEdcdOHBIP9HfJSwS6NXDjApbvgSTDlQE4ZU0BaBv6YLSbAfcZFRewqamAk0W/tquhFMBBlhlOBnBSgCTD9o5m0XicKGpU1/5vib8xzhRysE3VHGybfcgrEtaQu2VjYwG5KxRyVyzgbrl1I9kxPbg5O7R3VtdZUZNAyAy2w6LxhBpbmpuEXwMHhb5XEuAQYBRw6zXkZiPgHoDYG3QuaCVddtBR2+rF5ta+9pK4dn6xdtyVaMGvSMBdO3++WPvGK8kuBAds+5N2xT/TowLA2Rw8WrlJxWbBJgHXdFg0Nh0RDw31el0MVxbgwH46FhUVnLapCEAsHfETDZVWcFK9yROMp6qnq+gStpUkqgjoah7YUai4K1DFXZGAq3nwvjjc0JrgPF2wSagpsAHcYGxtOWkAB5nUWa/gBlXXAiYNEHAUcqDccMD9fgyOFv0C4PwkA2RxIeEBmV1IMkCdns2iJot9MZmCMbhQkuH+oV6xEb53raDVnAY6v8zHU/L+yZDa1oCau2n1qgJyVxjkrjjA3bR6pRdDicTaEnbUi9/A2Z+qNl+xMWBrPHlEqHFUPD4+NEvLRHSLFlkpBOrgaJkITTSgWnOsKQCOFP7KLKopE+mSDfg+4C5XFnUrXLVenlg8NZ1J0Xmgw5MezhR0IchBjO7AB2LV83sKwBWAu7yp4pV791jA0Z0Td1icqWrz42wlg+2oaDipx6mj4iedzWUEnLq4c95CX78ODrKZUAsn6+D0em/QZkVbtIyKg4JephaOKjd4rG9PcYUReA1TBxco9LUKzrabuYW+8Tq4u/s61QlFK+fMoMOwA850f4Bt3E9gpvtRimVdVKwAfEVB/opScIvv+ImGW4mqrUxgazh1VDScOiYHLLpoLCpzJa34UknD5qpSTifDeLaVRKQNJI32fieDhFxExQG8pJJjZoQghRtAEmAZjr+RBTB1w70sTM7cqjVovg+1LtyQ2HTmhGg8eVSrZhUewDBBIyjs6dhWCrkE6EjiiljWta+/LK65/vor6iC/EpMD5XrPVwzg5i1dIjbABZvp2Ra26U5Kz9J5VFvQirqKjYJNAu70MbG9q0XsPqeusn7Zmu0DvaigjhLFvindDL5VRZBxcxBuTPzNt6ex+BtVcFKx6uXLAfL0MoLbe9qE+s7V71A20NH9JKrmeMgtueMnBeCuEKt6xQBO1rxRuFGwwTbdadGWwJxJtRFlIGNsEbCdPiYazDguGk4fFw+PDqgkw3m6HhxdLinbaiIQZIeWJTjoMQAf6mYAZUQBB1YVAvwhFQeqy1hVsKzeiiIKZmhHVZM9xt1QuVFrquypvvJWHns6qroY0op8dwz3GpWs1DKo5mmCju4XcAKk+wzdn+h+xljW9e+8Ia676aYCclcA5K4IwN0C11egOx3dGelOmlBtJNPGJhCmB7aGM8cFjO3drbIGDi5CHK2Fiyx46bdrxRa8dBvu01UcWlWEHA86TELYJZJk3M4kFvTKvqR7AWJ9iR5Usqov9s1io71sticdDABxLoP64NiAuK39jD2R6HBANtBBtptaV7IPyISSl2ii+w/dr2Cb7nNOAuJDUSypdHlj7VVjUa+98QaxBmrecGejOyHdOenZOabafDuqs6I0eeBYUaPWQLkpxYZgU/MJ0XDmhNg50idSAUfatWTLVmDJcrRtAABsaYJlhgAQuAQ4Krg0FYcJBw5yDugwEcEsXS5jbtC4b+CmLito27OSsTebXHDLQxx7OsavJHJHX4c8cZjvG3+DvKCLxefo/pJZzVnLCuGSeYsXFSpulqu4Wa/glj2wQ8GNgg22s8AtptpIuYeEm0wc2OSBtaERsDWfEA16bOk4I56YHBEQhyvnmnAIOQCD03Q/yq8Lp6yqu2w5Bzmq5gB0/NCqzYm5JeFmat/S1FsGe3rvUK9obG5SgNMKOQw6a1vhNzQxumDGtUQ1hydXmImSqykuVDPrAT+rATd/1Yok3ByweSt+hGrapGpLs6MqKxoHm1JrCDU1N4kGOCBbmsT9w70ScNamqusHqAvP8HE4aCiHjCEE1/PYVG5lkdiFZyjkqOip0f4AACAASURBVJoz6oxcXMa5T6s2jLmhLVVFvbawF4t7QbllUW/UnqqlkobEfaP94ta2U+akAcrYUcuooBOKzgedrlU0oKOWFbYp6DJaVgdyFnQ31NbM+oO8XHbvSnyeWQ24Fc89HcmSkh2TWtIMqi3djvpWNA42gBuMze2nlYozTfejYtc5BTkoF8l2XVRVD0eTDcameioOGthjVhXXiMPaOIAT1K0BrOiQC2PiApne3xTY7JXuqS1F5cbBDeKETuyNUW9u/G1QbO1uVScLoozlSaQE0OVWc9Sy0pMoXaEEFkZF0Onkw/JitZFZDfhZC7hb4OpY1JbSnY7ujCG4sbE2nR0N2tGMYNNAQ7A1tJwUDa1q3DPQHUw0wHLbADnnyvaToOCIivOujUqTDTKjqmNxGI/DQD4qJywbwayqgRy5jKACnSoGpqDzt7GI16g2SCrojKkPN1oWAu8JY4UysQBXtw8kF1C9bYe4G/1eQRXLYcMAvKIjWW0To7NZcNN5ElJzVPXDvmT2raxZ1o8EOI0rUd1Uw3uelYC75vrrVGIBAReEG7EaVLlRSxpLIqDVQeuDMR85kwNLKgql0pyDkIANAbep/Yx4bHI4EYfLalOlVWWuz0BjcVzCAZUcvU4DQC4BOp35RMilzVKxOWBL2lKAKgJWwc1Tb/pKWrQ0hKq3u4d6RCNYUzhJwHc6HdBRyPllJRRysI+YJATZjxzIHXRjvbg/woxK7vB+Ub97VwG4WZpsmJWAW3L3nVa9cXCjqg3OwGZH1SUCuCPTmraYaisD2BraTokNetze205UHGNTfRUnFVwOFeddBBqtKkIOYEO7HCjkfEVnAKbB59zWy6CrIl4XbPCc8jV0zI2Lu6F6Q4sNkPZjbxB329h+2ihgPFHwoCMnHWlbSYwOT1J40qKg0+11cTVHIXeIKLlskJu/slBxs1ERzjrAXb9okdjw0XsCr2Yls6W0vo3CLaTaAHAhuOEBgAeEgZsfZ8um2BBqdG7oOCN2jg2wi19Sm4pW1V/hN4+KQ6sahBy5rKAFHRQFA7DUkMXBGmbWguLfVQEx/C8OetWsqHILWFNUb/ePDYiNHWfMiaGhVas4bffDis4HnapHlAkJ+btq20ohF1Nz5gRZOuRqH9lZqLhZqOJmHeBgR5kW3FhL6mdIyQGRyY7aGBsqDAo0s91+WmzQY1NXi9h1dlRDjnY1JJMNtiYuouKY7ga0qnHIaTXngc6FnYIYxNXoQKDhjGDzLSlrSwncjDUldW8At9t62tT3RdQvfJeghvF7NjNrXQOgw5MXnswk6GymNZmAoHb1sLvCjInJxZXchv3vi+sWLCggN8sgN6sABzI/d31bIt7GJBJwR8cdn6o2J2Pnq7YsYLNQQ7ht6DgtNnScERBb4pYwL1XFJRIOYwMiCbl+mVmldtVYVrlGW6/AchIEV2ymUKNgQ0uaFW73eXDbBsukkxOC3M4EOu83ookI1rYyai63ZSXJBxoy8WJysBjEbLRp1fyeZhXg6vc8ZQFHz5w00xWypQlLmke1eQcNkzwwKg0PQv/ghNtgt8ho7GwWADMFOVoTF1BxXkaVs6pZIcdZVrSTKnaGMbQss6ptw/8HqMmhS0H8chDMmKJyo3E3sKfb+jvt98R9j/gd6zlhXSum5qhlJZCjnQ8Ecqtfe6kAXKHg+B422W+KZ8cg3IiV8JSbW9sWgxuxNWx21FNt3sGWUB0M2CTkOpvFhs5msbWvQ0AG1b8QTZqK44p/bW2cXU4JIAJAoUrOWtZ+gX2rvqJDWMGsMq92pn+j2wZssgzELQXBhEIIbhh3u2OoRzR0uicCdVJglLD33ecCHVs7R9VcVsuaD3ILGtYXkJtFkJsVCu7qa64RcPZTCQVypnSUm4abBzZIJoRbrZi6NmNJ01SbzYoq9cYcgEStKaidkVADsNFxl7GqTCzOz6jCZQVJXRyqOFxpJAQ5Bbp+B3RYiwYzBR2CisKL28bHmVkqtgDYmJgbKjcDt8Fu0eB9N1Txmm1f1SVA552EEmUl5CRGQRdKQLBtXuRkCq7B7Itk/2SUXFEywguYmbLJswJwi+/cXiLcUuJtNNYGO3oIbjRr13rSZPWMLfUPuCxg62oWG7pa5NjY3SZ2jg8GVdxjZJURvG4qLf4NQQ7tKoAEAJem5hTw+ljYGYih/cTZgxq1o5xqg/cA78eH23aAm/w+XPibE4H/ncJt/3snoEskImK2NQE5OPFplY8JCBqXwzKjTLVypCBY29Ubli0rVNwsUXEzDrjrblkg1n/wrlt3ZM6WpMYtodxywM2ADSBHlZunBMgBJOHmH2D+QQhWy1ckBGwAuPUwulvE5r52ASCTrVukfYuzqlxWNQ/kQqCj1pWqOwQfxO2S96sVTOB/6QBLfO+Y7VBwwKYTCqDcAMLbBrrEhm71XSD01czAzv+OIWFDf4e2084JKGlbye+bSEDo7DkmmzD5hJAzpSSkb7kEyC27/94CcAXglJSteeiBacIta7yN7PjS0rhwM2pNQs47qHRW1FioFLBJqGmwre9uFTjgQAfAYX+q6m7QCQdtVZO1cbZ0JAg5UkKSUHM6PufH6CiscNtXZ3g/zhJqDNg4uEkrPTYgNvd3ms+vvocSQUchB9veyciUk/jdEBRycKJLqLlQXI427Gewqxg/PnpArHvvzWJZ8wJwV4kb6+tEo1PES2IdWHwZVW4UblnjbS7YaAdCNtXmqQ6i2FCtgWJDqMm5p1Ws72kVG3raxN0jfWGraiCnruZuC4CzQY6zrAAfo+gI7LIAzwAtADUKNiwDwXgb/O22gS75ueGzO9+HhH75QeeouVyWtfyQW7hlc6HiZgHkZtSi1j39pFVvuW1pCG6xjgQXbq4K8FWbl+mLWFELNu9A1mBb39MmcDT2tctlyamSoxem4eJxKungQQ6WVyI9q5h8QFuIcTCq6BKwwwystJpoOZXtlJlZ/Xf8P5zpc8O2fE293Dq8DwDjxv4O85nxs0vQJWCnbbyOV/LW1fstErbVJoSSsTmi3Kmau8xKbuULzxaAq2bAXXvjjQRu5PqkpSg3mkyg8TaaXXNq2+wBkarafDvKKjYObBZq8gDvbRPr5WgXm/o7BcTZQvG4rJDjLGsMdBzsEFppsw81qthQtcFrg81t7OsQ63vb9efVn5tAPga6aIzOj89FbGsmy3qZIXfj8toCcjMMuRlTcPOWLVWAc3pLQ6UgNKHgKTcWbuSsDZCjWVIvduMEsP0DiKo2FmycFSVgM1CDgxwOeD362uVFmKmKw3gcJh3SIId1chZyoOjURWsANA7odLA/CSmb8cz6N7DBqNgo2GAbOiLW97XbgZ+Xwi436LyQAPwmzu/kKW/y+wYt6+VScrR+8+gBsfTeuwrAVSvgblq7xr3iFXYo5Im55YSbY0n9sz89aBKqTZV7gLpg7ai0ohzYXKjZg79DrOvrEFuGetikgw+5RydVTA5LSDjLmhl0+qpdKl5nr97FAU7CzAMahRqCFP73tqFusa5ffS74bOvl4GBXqqLzQEd/L9imv2cWyMGJD9V+QsnRMhJaEJwh8UAgt+rVFwvAVSvgFm69zRZPItzAnmINUrT1ijbLh+rbIvE2ejD4B0qqaiN2NBfY7MEvQQAw6M8DuRFpaznIUTUXAx0CiSqwLNv4f3QGtQgxQLCkDQNdYl1/pwKc/lwu7DjQEQtrVJ1KxrgJCS8ZQX8fOBHR34/+rrCtQRePy5H9B0FHy0hKKSExkDsgrru5uLzgTBX5wuvOmEVdsuNuBTgHbhpwZYVbJN5GD46AagsrNjgYtWozVpRTbBps9MCX2wCETrFuoFNsGe7V7Vxuv6pRcia76kHOdD2oBEQCdDoRASBSQHItLAVWlm2EGiY3tg33yvcPn8EMCToPdn3qO3BUnW9f8buUsw86D3IQLqCgo79jLAFBQxU0PstZ1lIgRxNlGnILNjYUKm4GVdyMAa728UfUxT/8pMKMwI0cMGysTas2PysaARvYNDkcsFmoGSBoOADkIJvq18hxkOMsK7WtPuikqnNgpzKwCL34jI9VF8WB57prrF9sHOoR6wa7xDpQb3IQyMFnyg26gHUldYSy/IZmWynkYmrOsaxE2WeCXKSEBN0GLQY2kFMtXXBVuJlUMNX+2jMGuBV799iVeL24m+0tzZtQIDtvK1FuvnWhZ3x6kFC4sbVsfpwtqdjyga1LQQJAMdgltoykQw6TD1gQDJaV2lYfdBzsAFI45JW88Ipe3oyPwXnH+KDYOtIn1g92O+9bgq4E2PGKzgfdNNQc/d2DkCNLpAeVXB7IkVrO4wfFir1FuchMQnbGALf6rdcU4C4H3MjO7ASfHbB5bVZaGSQsaZpqM1nDrIpNKx4NNQMHebtbbB7pE4+cdVu6EhlWYllZ0GnrysEuDXgIMzpDnG7baJ/YMNwj1g51m7EOEgtR2GVTdZlB56k5W1JCFDicsOjvHIQcWVSTFgUj5DAeB4msRJO+yuonFs5EN0Ka89fvf79QcNVoUdcf+EA0BuEGmSt91sRYiMyYkoAw7IjGYhDllhduVLX57VU0ieDb0TSw0biU3HbVmgWbBQbCo2G4R9w3MSSeYNq6qGXFK3QB5HzQGVWXgB3E62zMDoAXGqDubh/rF40jvWItwE0CzoUcvucg7DgL69tXE6PTyQgTn8up5qganxbk9H6WG3J8S9d1N99cQG6GIDcjCu6aefO0etNNzVzcDRuhAXBlhRs521O4xSxpAG7ZYmwc2JJQU6DQENEw2T42kIjLcWrOBx2N0TkWFmBHgAcKjxsAtjvHB8WtI30WbAg4Og8FYCdVHWNj/VgdA7r8as5LQFDIOXE5Ui9HToLhWrkyQE7H425as6oAXDUBbt7SJVa9zTDceEsaiLUFVRuXPMgKNhdqRilpkGwc7RMPTA4H1NyoXDEYAIcD1ZydbQ0dwo7OEngafAC2O8YHxAYAG6g2fwwTJUdBB9tR2HnfBQs6VTaD5SVJ0DFqLpNlpaUkFHKkjIRe7Ma4glidnI4NYwmJXE8usALJ8UMCrvE7k3Goan7tGVFwN61dTerdvC6FhHIDBYfWdDq2lCo3VbgbhRur2gJxNseOegczxNZI3AotnQSCDwl5mwHLSK/YOjYgHg3G5pKgS6o6ZWM5K7tjYkhsGRsQa0f7xBo91o7y78OBHvv+edixsboY6GK21ZSUJBMQfFwuC+RImAMhh/G40CokCLjoMkuHxOK7theAqyYFdwsU+epL++XKmOKOF+orpQFlGoOhtiWaTKB1bTpDqlVbMjvqBdDhYPUTBxzYWCjEYWKh0ye2jA8YRQcxOrCs1rYq0PlxOqnudJwOlR1AbSuotdF+AzV8HW4G+DlwS6g7Rokyqi4BOgk5SLzo7zNmW2OxOaPmqGUlJzXHrpLOB8euZoQcxoXNoplc0sHG45Y99EABuGoC3JL77pHXLbVw85IKXAtW2eEW6EiQyo2Bm6ln8+0olxX1Y2zMwQ+g8yGBt4mS4mCzZqxPrBvrE9smBsU9k8NS2SHoXNhZZQc2946JIbFpfECsG+sXa8f6xZrgsEqOfX2AXUzhcRD3YM+Djpw0JOi0bWXVXMyyVgpyXvlIYulzBbnlu58oAFdNgKvd9aiAFLsFHGZMYU5JKphq9ECdW5pyo8kEWgKSyZKSA5DNjE4DbDGojfUFYQSgWj82IBrHByS8bh0fEHJMDIhNEwNi48SAaACojfeLNXQE4RYCXxh6QdhNF3SsmmMyrdSy5lJyNCZn9yezOANXPiLtqt5HpZJLj8etfOn5AnDVBLgVLzw3TbiR6ybksaUJuFFLCorA9kzGLalvR32wdSezj6jO6Dzay9vDCNCM6qKwGh8Qa8oyCASjAIzAjn4+3PZB51nXvGrOJCCoZS0VcnT/4ewqBzmufCQSj1vzzhsF4KoJcKvfeUM0QGBW7hSo3lC5pScVsInaWcstt3JLgVvMkjqxNg9u/sEMmUc80HHm1FoMagZmcZCtHh8QZkwMiNWhQR+XCkYNvSDweNglPjN8dv+7yQM6z7Jebsg5DfoO5CLlIwg5z6pCzWc1ZzJn8rPPSBZ1/aGPLOBk1pSD2wm2kLf8cEuJt2HwO2FJPbDBweofwAg0PbPxrBDYJNSSQAsDbFCsnih1MDAMgi8GvCTsWPvqf08kPgcZZydZQzOt1LKmxuVIjBWUu+lhDSQeGCXn1sjpDD6XWUWrmkg62NKRq66+uoDcDKi4igPu6uuu8+AWiLtxSQViIdgWLC5bGrWlWeGWYkn9AzYT2JhYFwO1JNByQGxyUKz2Ry4IEvCxwAvBrgTQxdQchRycaBJqjsblaPIhA+So8mchl5ZZzRaPK7oZZuZ6qRUH3PWLF4WtKS5ASNuwsiYV6HJHTikIXQmE2lIKN7++jSYTXLjZOjZQcJ5q88BG68qMevOtHmM/JdQcexmAmg8vc3tIrJ7MMhgAwnMEIaiBF4Kd/9lAnXp2PGFd/ZMDVXN+nysF3eWGHLk8YTTpEIvHEat6w/KaQsFVg4Kbv3qV22eaKAkhxbwGbilJBQdu6oLLqoi3nHDzLKl/YHpw8w9skxxACHBqzUCNgYyBF0IpC8CGxOqzZGSCHj4vvo6eE9ALwY5RpnlBR9RcumW1pSRmxWSZfCiDkiOOgYecF4+LWNWb1q8tAFcNgLvltlvVVcWd2Bt2Kkwz7qZ7S50OhUTDfCnKLQK3aYLNVWse2ByoIXjITOFFtledHRJZhgM/8v+8+iPAC8DOzeSmgy4Rn/NPGo6aI0o6j5ILZFdNxwMNaxi7miwfSY/HcVZVLXcOJVFQ3D6TwfZqfe2KW9TF996tAUcSCzFrSs6iJu5mdkSy5BEHN6iJQsAlCnipLWWKd02mlMItbkkd1eYnDzzFZsEWghoBGSgvCiADsGGx6my5h4Kj83oJ5ReCHafqGNDlsa0O5EgC4rJAjrR05Y3HpVjVxcUFaGYE8BUH3LJHHyLFvAA5VG+cNbXFlwZusOMh4OjZF+NuXFKBFvHK1qsI3AzY/B7SMNwcsMHBizYU5ixgCyk1AjWlyDyYnRsWq8o9WGASwIZg56i6LKBz43NRNXe5IGcyqy1kCXQGcqnxuHSrurRY2bc6ALf86ScJ4BBuKdaUnk0N3Kh6083zmeDW7i0lThIKIbhR6xSzpBHVxio2Azai1hyoZQXaiFh1rhwjAEwHeiHYcbE6BbqodY2pOfq907gcTT6kKbm0YmADOVI+gvsYzLjvaSfh1sdxpSO8VV364P0zcoBXqzXFz11xBVf/0vN6fbfj9rJtXNa0JGsaSSrQpnlaxIt1bgRuTqaUHmQUbn4XQkC15QVbQqklFJoHsvMjYlU5RwKUHvRSYZcFdL5t9dQc/Z7p939ZIBeokUPIIeBgRsiR5JdZdBXDLGhVvYRD0XBfJWUiq956LbmAJda8kR0HdyZzBoUdDHc6tKZc3A1jbhBcxrhb2eFGDsg8qi2i2JxYWghqqSAbFSvP5xurzo/GAekALwQ7TtUFQOeUmHigI2rOKSeh69DlhFy448GtkUsmHXJa1VgB8KljYtkjOwsFVw1Z1DUfvacAh2c8o95sQaWBG8Q+8Axq4JZmTflaN3f1XWJLweJo9ZZFuTnxtgTcVOdBWLUlrWgYbFqpsVAjELswKlaWaxA4sqowBDuj6rKAzretEcj5K5agmssDOXoR6pTyEQW5jFaVWyQTIYcqDkqgtJKreezhAnDVALj1Rw/kTywg3GA26i0t7uaVg3C2lMAN6q0M4PBAgpnYJRdu5MAkiYQE3HzVpmNsBmyOWgtDzSizAMxWTA6JupE+sby/W9T2dIiazjaxrL1VLGtrEctam9VoaxE1Ha2ipqtd1PZ2iuWDPaJ+tF+sODcchqRUeIzKM7Ajqi4NdH4igqo5avHhxKHVXDD5kBtyXrcDVz4Si8fhiZazqrFeVQTc448UgJvzgLv6agK3UhIL+uzqWNO0uJuXMcWY2+WAmyzUJWUfEm5atflgAxgYuPFgC0GtfmJQLO/rEstaW8SSphNi4aHDYuGBg8nx8UGxMONYdOSoWHLqpKjpaBN1Qz1i5bmRJPSisCOfxwedybz6tlUtDmCTEOSk4UDOW2wTT0BpkEvrdkDIkSWWsllVm923BcBewsFTcbW7HisAN9cBd+38+QRwybIQa01PpVrT1GLeRNyNt6WwVM90lVsW1eYkD6Jg0/bTU2p1w31SkS0+flwsPHAoMBjIceDLeB8AD9TgionBAOy8BIdUdUnQmZo6CjpPzZUfcvr35iCXyKxy8bisVlWHVlJUXO1TxaKXmNms5FzRLOr1S5fYzCkmFmDH0MkFAzi0A9O0pnzczcbcpge3QLwtptpygg1sJ9hJCbWDh8RCHEHAXQ7wqedccvqUWD7Qkx90OdRceSCnf99A+YibdNDxWqnkCOSyWFW2Ni6s4mqf3lUouLmu4G5cuUIDLqbeuMRCBmvKFfNycTdTDkKUG1gdtD2ZYm7Z4BZUbU7iIKnY6seHZOxs4cHDFmoIN27ODbwQCNPvX3zsuKjt6UwHnR+j06Bz1VzSsuaCHP5mMJMYKiaN1nGQk0mHQDwuZlXpyRZPwKZshF5EGiHnFv8uf+apAnBzHXA3N25QgEuoNxvTSGRNY4mFTCUhvDW1B8RlhltEtckYG7GiK86NiGUdrSqmJuEGgKODqDgOdHjf5QSefg1Qlcv7ujOCTttWFnIQoyRxS4hjmuRDKCZHFhFlIOesEIyQy2tVs6g4NuGAgNOXHdSxuOXP7i4AN9cBd8u2LaLBlIU0ha0p7Dh4xjRZ08gqIVjvBrGVPq9TIXNSwR40mMGTM83u6QNPxdzIQenZ0mSG1I1V+WBbeWFM1PZ3iUVHjyq4QdIAhwM4CruM6g6hR2cOgPTvObbButaPDSRA59TXsWpOl5SwcbkMkCNK26hvouRcyCXjcelWlRQA4z5Ir8yVU8XVPf9MAbi5DjhoODaV3yb2FlFvzjJIaodbj+1YQfVGLiAMZ20JuBxxN1Js6vaUUluq4SbBBjbL1n/F4Za0o1CisbTljAUago2bLwfscsDMxADl/yBgFXSVbR1zQecXEdMkBFVz5YSck1mNxOOCVpXE4rpVKdIGyNoj5PDEi4DLqOLqXni2ANxcB9zSR3ZawIUSCzH1hnDjVgnJlDUlcTdqbYgaMOqNFvE6yg0KVXXsCJUbLQEJWFJOtUFmVCYQDh0RC80g6o2DHL0vCrwyqb0crwGgVkXHLuiSao6xrAHIsTE5chKidYpGyaXG47w15GJZVbSqCLgSVVz9i8WVtSqZPcXXqmgWtXb3Lg24DJnTLOotpzXNHHdz4AYrguiLuWCdW0i5UbiRRIILtzGx8uKYqO3rEosOHxEL6TCQQ+DlgF3J4PNBmOM2fU29veRkk4A6PbDdTocFVXM5lVxmyNGTloZcyVY1S8Ihh4qrf3lvoeDmuoKre/E5BThfvbEtWV7m1FFvXjuWVG+Bgl4ua2oOhJS4m+5Q4OvcPFvKws1vo1Jwq+npkHBLAO5ywI5CKIsag8fj4+j/5thefOyYqBvtlyB3QJeAHBQ42xVTZIY1TcnRmCjX7WB+W5tZzZRVLbeK8+riVrz6YgG4uQ64lW+9KhpM7I1ZhhzjG9NSbxh3gxljbynWlFgeE3ej7Veo3Iw1nQbcutvT4UZBh9vlUnc5QGUSHbn/54iAzojLDznS0kXCDNaqKsg5y54zWdUsCYdEhwPuqxlV3IrXXy4AN9cBt/rD90zmFNbVChb2YrwDW7KyqLdEzRvCjS5cmVISQtUBxt04uOmkgkwoMMrNtaSjSsmALe3tlAc+HPyLDsM4krSpCLTYnIAdWlqYS7S1Jf8ffW29rd/7oqPHRP3EUPmUXFr5CELOWX1EndyiVjVLwiFXLM7rbmhuEiteKxQcxsUqOVc0BrcOGu19e4pnQDwjwmwAF8icBmNvRL3ltaZO3E1nTKcNN2VJIeYGCQUJNoCbPzTsnHhcDHDc3zT0lh0/IRo7OsSdw0PioQtnxe6ffir2/vJL8dzPfiqe+PSiuH9yTGzr7xNrWpoDMERgISjxdmDm3gu5D9q94PPL4cXlzIoltIwkkV2lxcCB8hFjVUnPKlrVWFY1WBvHdThkyKhi4W9bsvAX1kGs5IFdvJZaf66igNsASyRJwFVOvUUTCxFr6sTdMFtKlRsciFK92Ro3V7lZuK04OyxAzSTApkG38MhRYcbho27igcCCA+CtPV3i0U/Oizf+69/Fsb/+r+iY+lZ05hgf//H34oVffCnuGx8Tq5sBeh7IUl6fe0/+fbCqiYEcwI4UN7uQo9lVWidHag4n1MlHJh6o4kbIoYqD2UBu5lXc8qIObkYAXzHAXXPDDWH1xpaGXCb1Rg4AWxJCKuZ9a+plTN06Nws3KIWwB66FGxzYS1uag3BD6BnAUdjhtge97UOD4tX//KVo/dffokDrmvpW5B1H//L/xNNffqZgVwa4oQ2vHejmIZdIPJQKOSYeh4CD2WRVudo4rmyEqLhERjVSF4cqDteL08mG2qefnJEDvNqVXMUAJy/4nGZPMbmAsbeuFrEedy4s7EV7ipnTSOwNd2pzJocdXQPOwo1cJMaHm5dUML2lqNzAWslykDDcaiDuBurt6FE1fHvq3Y6BbnNvj9j3h98GoRaDWffUtyI2uP995svPxNJjx3MpSlRvCmyuHa+b1PE4Y1n19xaBXDCzysXjUMXRhTIRcgZw9MpcOqSBVhVjccGMKtPdYEIrpIfaQA5jcU2iplguaUYAXzHA3VBfpxRcpuSCt5glwk0uQ24XsrSrhWSMvcXUm1MSQjsV7HpuwaQCsVzUitWND2q4AeD84R78qORg9iG39PgJ8dzPv0iAjYNSEmLfie6pvMPCEF5jx/goAzm00jDr94yzB238bEuaz4gVl8atkqMxOQ5yXDzONkJF7QAAIABJREFULLPEWdUSVRwCrr9DBDOqeKLFZIPpbuCWNlchGIw3Q+XA0kcfmpEDvFBwFUrdzl+/VgIunDnlkgveYpaVVG9c3C0tY4rK5OKYPJCXnDnNgM0HnVZ3DNgAdLcPDYijf/1fJ67mg81CzYKsZ+o7MZ3hQvFb8dqvfyFqm04m4OvDmN5GsNG5pq+rBMilxeNIiMGouHDCIVNGNaLiUktGjIKzyYYlO4uras0EbCum4G6+dWMK4AKFvY56gwvJ+A31OdUbvRoWBqlRvXFZU3qRZbSmukvBSSp4cKvpheZ5Dmbx+xYePSYWQtP90aNi1+eXgmDzoRaCWe/UdyLPCD0PAm9rf28UchRmoe26yWGx8iKv5Exbl9ftwFvVlKwqKna2bMSLxaWqONKjiioOs/3GpjKXGdRhmcX33VMouAqJKQrSigHultu3Clv7RuIVuHPgzgJxNxl70/E3BJyj3uiKIQg4W/dWSuwtNWuaUG983A0sGBzAi44ds6ME0EESAbOhVLFRsHEwisGsb+o7wY3Y/8Df/Nd58NwEC7kQ0Mz9Og65tK1Fq7gQ5HRsMwi5lKxqVMXlyKhKFTfdZIOKwy26+44CcHMZcPADl8ue2thbh14tBCCHgGO6FvBMXpJ6w3IQmDGpQK9XQDOm4/LAXdreKhYdO24BR2EH2xHgLT91Snzwh99KuCXBpiwoBQ4HJw5ipdzHPTe+9pOfXeIhBxCDGBwmVeSc/MzLh/tcq0rLR4LxuIBVjSUc8LfHZEMso4oqDpMNkMhyIIcqDmviWmzNJp6osa7Ts6m3bN9WAG4uA27xAzsigMtiT7MlF4x6Y1bpDWVOWfWW25oquC0f6ddwA8DRAYqOgZ4Hu7f/+9cO3EKKzYcPB7D+qe8EP/4u+qdw8I/hno++JoDugbPjQllqsNVJiMVAvripSQIulHTIZFVjCYc8Kg7bt2BpLczKI+RYwLVKlyFjceg8oquMnBQLtmwuADeXAQdZpLCCQ8Blsaex9d4i6m2k11yKzu83XR2MvXHqLWxN4WCViQUHbBRy/jaxsceOiae++NSpW1Nwcy0ihYwPIRdmCLC/i4GpbMNCD/9Xwc9/HfoeNnaVFmsE+NX2d6dAzrOqMqtaBhXHdjfoUIev4hzAgV31VVyWmriT4uZNjQXg5jLgap56QgEOJTxKeqx9gzOhib+Fs6fWnmLsrdNcuBmyY0rBJXtOy6beTEmItaYANhi1Q71i0fHjdmQG3XFx+9CggRuCDQL7aAkpVChwLNQUlLLAbHDq7wJGlsda6CVhB+/pzP/9Obd6Q2UnVZzOOLtJB64+zhYAhxIOZlklTB6hikObCjNaVb8uDlUcAi5YMuIDLptNvWnDugJwcxlw0KoiFVwCcKjeNOCwsR6TC6m1bxh76zLV6mYnhuyZ3rkt4HRJQWrmNKne+KypgptRbxRwdDsCuyXHTyTghmCDGeEWAhsHKoRYqTP3nBR29L1AQXDQovrxR+82lo3A92dqCEl9XKKVK1Ybh7E4BBy9tipCzgBOrzQymLXwF5MNCDjGpuJJu4Mk0XQs7sY1qwrAzWXA1b3yQgrgAsW9Tva0RHuqz+QScrjz+10LWPcWi71F1Fvd2IBYdPyEVW8Ubtw2AR4U8UJCAZUbwg3BBjMChSo2H0IczIam/i7yDu556GtxoLutryecVDFQ8y36cQHXdEAFnK7i7PpxjopLxOKYujgDOE7FBUpG2Dhcm+2uSSxpHi76vWFFXQG4uQy4FW+9JjZEF7bE+FuJ9lRbjrXR5IKn3mClXjw4HMDlV2/Lujo04ABydBDLyoBuc39vFG4INpgV3Fxr6cMoBLPhqb+L2Aj9H9xPXyMEuv1/+G8vqZKEmZt0sX+Hjg8LOW39U1UcF4tjuhvQpo5yhb9eyYhvUxFwZcimzqtZVgBuLgNu1b63w1erx95TtKfQFiMvxguFvbHi3og9xTM2m1zwlkNCuE0OiUS/KRb1RtTbik8mxKITFGpp2xZ6+/7nv4LKDeGWBjYfTi7I/iGGp/IMC0L/eeOg+07sPD9ZEuSWdXcYwLlWNWssjtTFoU2FEASqdYQc7hOZbGqsAT+DTcVQjLao0ItNC1CLbbWc0eX+HipW6LvmwAcM4FLibwRu7uUAMcGAgMPkQrcNIuud2cbe3KZ6VRri9ZxKe5pRvenEAhyQsjQEAIfDUXBh2N07MSbhlm5JrWqjkPEBpMBmYTYy9Q9R6rBQVMCjr0XfA1V0Hf/4RsCFoUNKTSZg4O+MkoWTREkqLrHEeUTFIeBgNpBDFYc2NWM21e9NxXKRQBzu2gU3F4Cbywpu7fGDEcDljL/htU4Ti1rGsqeePXVKQ7iG+nhRLx6McGAu62yzcEPI0RmAB7c98B35+g+JLKmr2sCWJuFGYWPVmgIbB7TRqX+IrIP7fwo7+toc6KAAmANY2n3LxwYM4KIqLrW7gbRvoYLTyYa1UZuKgOtSxeOYTUWbKstF2q2zCJaL8HE4WC7scquV4vmTqrBiCm79meNRwKn2rNLib6a4F8/K0expwJ4Gkwuk7s30m9rMKRyMRrlRqKVs7zg7Llf54LKkMUuKgKFg86EUgtnY1D8EN0KPh/vpc6eBDtRc+9+/yQg4AD6oOTUv62oXpag4m2wgNtUsipnFpqKC09lUjMORol9+hRG0qdjVEK+Hu/raawvAzVkFd83VBG76qvXR+jedkicWNVn/hvaUKQ9BK4LZU2858kz2FGNvZiHLZN0bHJDLR/vFohNNeoBSg21iVwPb7/3+N456c5VbUrWBWnLh5sLHhxQHsjz3+c+XBJ1rXVHNAeR2TIwl1KqvXrnbLuBo2Yg6ySS6G4KFvxlsKp4MddGve2GaLDbVAg5Ozk5XA9pUjMO1nCzgNgNwA0VbEQV3zY03EMBpCY+A8xMMWP9G4Fa2+Btb+5bXnhL1Bva0q0MsNoBD0NE5Cb2VrS254OaCDcBi4eaDyIfY+I//EO74Xoz/6A/yGEbl0dfgQIfvDyH3we9/UxLgZDY1FotzelS5wl9UcRHARRfDzGJTc9TDacCtO3GoANxcBtx1C29hAJcnwUDq38oZf8PsacCecoW9JvYGSYZPJgRU4y/iRgR6D186LwGHdW5cCQjCAuGBCQQKGARPGGoWZBM/fi/Shgu+f4hxD3b4ejDj+1C21apLfN+1p05byIGKxThkQNGC6oXVj1kVl1IywtrURDY1shim6WrIAzhSD+crONOXqgp+Vx/4oADcXAYc1ABtQLmO8h2zTqY9K7w8UtKe2vasRPwN7Wme8hA/e5rRntZNDIUBF4JeU5M48df/TXQnQNwNM5IIiRDcKGgo3JRSU1ALwWzyx+8FHaHHwf0KeErd0dfB149B7oGzunQmAjTfyssVf4mC45INQZsazKZOIw7nJxpS6+EwDucmGla+/1YBuLkMuBtWrsgAuDwJhssZf4tlT117WtPfnQ9wTU2ivrWFhRtmS7PCjQInBDYKsjzbPvQ40PmQA9iBykQov/tf/5EpFulDrv7cqKfivMJftKkZsqmpval+HI5t21LuYTqJhvrios8zBviKxODmr1+XA3DlSTAk6t9yx9+S2VPfnsLCjWBRcbBW1VNy95+blICLJRUQEr4tRagg3GxszbWfPszO/vi9yDr8/6WwQ9Dh6+P7gdmqOQs5Cy9MvNCZbmOcsknUDvXFAXdhVF/oB9q2uNatDHE4ovKz1sNlAxzfeL98754ZO8CrvXSkIoCD5cqlRYUmZLCofoJBruCLCg4BF1v/DRVclgLfQP3bdOJvn0yI+ovjGmwnnXlR00k+JqdB98ZvfmUA55eDgHrLB7cw2HygnfvxexEb/uPhNoUdgg4hR+NzCDql4qyS+8nwEMkw08RLeDtZLsJlU5PLKEXjcGWvh8uXaKjZ/UQBuLlsUWG5cgW4EjOouAghxERkksEHXJYC31j9G+leyBh/g8LUxSdPukPCDQAXHn7jPBd3y6bcLNwoiCioLND+Kc796I7z3m31dwtB+jz4/Ag5mBF0vpqjkNv7sy+isOcU7+JTp5SCI7E4u8pISrkIxuGwvzhRD1fuRAOWikRWFmk/LZY8srMA3FwG3MJ77vQAV6YMaq4G+yyAyxF/6+ty4aZht+jkSREam/p7WfXGxd3Q8qE6QpBgvA1hg/ChQFJgU0ADkOUZFoQKdvi8+Dow42tzkMP3DdnVM3/9U37ANTWJurMjcZvqx+FS6+HKmGjwF8BMa9lqPy0W7SguODNTVrkiFnXxg/eVAXCo3krPoKYX+DKA090LbPzNU3AhsOH9j3120Vn2iKo3zprmhVsMbBd+/KdIGz4IUdUh5GBG0DmQ0+Uk+H4p5JY3N+eCHMQza+F6DayCGxMrYdEDBByobbwY0NlhkbSpWA9XbsCRlq0MgCuux5BsoaoU8CoCuCUPPxgAXHoPakklIiV3MCDgIgkGfeAl7GkGBffO7/5TAo7G3qh646xpVuWGcKOQ8oF28cd/Cm74j4Pb+DxU0SHoOMjh+6SQAxV31+hIKuAwSYOzXF3EAZyOw+Wuh0PADeRfWQRbtspQKgIx6Eod0MXruDCtCOCWPvZQEHBplwhMAg7jb+EWrTwZVG55pGiB7ycTou7sMGtPKfRQtdG5+duvDeBC6g3VD4ICwJFmS324UWBxQEu7D/8fIQezr+Yo5GJW9bmvMA7nxyWhQFolZBY3QaLGJmuWtrY4Co6vh8uSaJgG4GAhBywq1zHgbJnUZC3c/LVrCsDN5RjcsiceTQEcZlD1OnCkTeuyAC5zBjXUfzogIBgugXZKJxpwJraVwm1FW6uBG1fzRtUbhRsCDi0hggXVVAhuFGKXfvynsONf4tKP/lB/p/+DkEuqOVtygu8F3huFHL5/gPUHv/tNMCaJ3w89MajvtLREQ9KiDgoIS8h6OMykJtaGc5dO4ntSS6mFs8W+8+pqC8DNacA99fgMAS5LiQjJoOrrnloFxwOudqBHAQ4gB2CTM2yTcfKUWHQKEg5qvm1wwAAui3pDy0fVGwKFgxsFEoKKQu2TH/8lYsNCz7Wx+Lyo5jglh/AFyOH7Rsid+eZP+QF38qSovzDmqLgsmdRcgMvUk4pN96UArlmVRHWcEdctWlgAbi4DrubpXRkBhzVwWVbxLVcNHAFcsETE7WBY1tPpwoyCjWwvOgVwU+OBC2c14NyVQiC5EFdvNmsJgIvBDcEGs4JbEmqf/vgvQYcPPQ50McghdH0VB6ADyIGKQ6UWmhMK7uRJAW1wfKJBx0cx0cAW+w7Zpeh9BWfWhrMXJCpvsS9aVAu4Yi04Ny5WyThhRWJwtXt2X1mASyxP7gJOdjAQkDnKTd+PYMP56a8+d66pEEouoPJBawqqCOCBIAHAcbYU4caBjQIttk1hp0Bn1VwScha28N5CKg4At6ajg4UcBza8D1ZJzgs4iKeu9mvhEHBmCXNVC5dt8UtUcPqC0M7il36xb2BduPbThXqbIfUGIK0M4OCSgdBsH2y0xxjcLFFwKYBbfJpY0QjoEG4wv/6bf5eA4+2pbXUCwKHNQ7gh4Kx6s1lOBA+n2ijMPvvxXyI26GMRdDHIUauK8PVVHMJ629CgAziEWGyuGegJAM4rFSEKjgXctIp9SwGc26617uTRAnBzHXDLX3h2hgGnAs3mCvZOkgEtKpaIjKhaK4BcYAVfTrHF7gPAnfrbnxLLj8fsaSj2RtUbhZsCnLWkCCwKtc9//JfgBn0M/l8McjQeh9CNqbgHz59VVl3HIyXY5IkBEjQ6jgnJGUzUnDopIAzAK7grC3BrDn9UAG6uA67u5b1zBnCw2oWEGaq4jLNa803F32L21Kq3fxjbB/BAkIByQsAA4DhripBCcFmo/SA+//EH8VM9YNsOq/Dw/znIIVT90pGYitv9xWcmFgmwj50M8G9LzpyZE4Bb+cE7BeDmPOBefXHOAE6uAQdQyzlixb209s0CLh57Q9D41hTh5MLNQg3h5s8KdDHIWZjCayNkQVEifFHF+SUjr/7q57kBB6CbCwqu/s1XC8DNdcDVv/HyFQC4YbMMj2wHknE4LBOxSQYIfiu4nRaLT9MB0KO37XZdW1siwWBbs5Lxt5g9RbD46g3VFgAuBLcvfvxBcIPCDtQe/j/CEp6bxuMQrqjifMCpWJyNJR7/0x+qFnDLX3yuANxcB5y8qv0cSTLUDvYGQRYC3IbentQEAwbkuewpAoSzpzRrikACQClbapUbgu3LH38QdOD9MAPoOCWH8ITXAsXoAw5VnG9TUY02f/OnTLYU7SnOshZOX3/WxEMxAcSUieRJMlQqi1rz9JMF4OY84N55I6OCy9PJMDN1cDV93bkBt21kiAVcqP4NFByWXXDxNwRMzJ5SwCHEKNj8bQScDzmApgXcv0zMD94DqskQ4HDNuK7vvlGqN2P8DQEnVxXJAThb6Dt76uCgTbGSdV/Fa7k1dxUpE4E16bOVieQBXJZe1PJ3Mizr7swNuHvOjmcCHCoeDnCh7CmoKgSQa09d9YZA++rHH8RXP07pAdtK0SEEOcAh5Hybmgq4H5VNHfznt/GYJYAPkzVkW15lKwA47toMFnC4qm+kVatCnQzFUkkucCoN4IoAbtUH78wQ4PrUKhL+cuVOmciQWAXriclld1SpSKxVSxb5QqztjI6x+TONw+m/PfTJhUwlInkAR7OnPuBC6g3h9rMfpwQOgB3Cz1VxKhaHthdeIw1wYKVDiQbIiroWnsYs+aSNLPa9XIALLFte7l7UBVtvKxTcXLeoq/e/nwK4PFfUmtnVRJa0NCu4Abwyjl1ffJoTcLYzAC2qr+DyAA4BBoBDsP1cQ06pOaviMOHgJxvigPtnaiZ1RXubBzibhHHBB/cr+EG8E9fh82Nwq3Rb3bSvy+BfeGZIX+G+TKuJzF+/tgDcnAfcgQ+CgIMrgq/vzgO4DAte+uvBoYIbH7A9itjS41wyEIt9w+vBSSWSEWwIwGd/8UXVA25dd/7YJVy1TC2VNAvWg+vvEHABcjmcVX1x2XK/VUutJjKvtqYA3FwHHFRz8zG4ZpEGOFiDa51cjyvHir6jvcKuCYdxuAG5dM5qXK/fsamuRQV1YEpFvBV9EVrufIaoOdyGWY3nf/lVTsAlkwzTUXBgPUHF8RbVZlUvp0WFTHJSqcVU3GlRA90Ml+hFZ7wuhswr+mZZ8FIlrdbhpQNDC15KuGVf0ffam+YXgJvrgFt79EAZANdhFyAE+wCjEtdkIO1a9edHxZIzp4VScRZgCLLQvPfff5YpyYB9qJc/yYCJBhduCDhaKuLH4NAa58miwudq7O21cUsap4xsyytsxQDn96GaZntMMuCCl+Veshwb7SNXt4e+66LRfsbhXpEkw9rjhzzAwaUDQb1lUXDtWsGBkkMVh3E4LBWpzFW16s+NSLgB4PJA7oUyAA4C+FgHV+4yEQAbwg2zqLTYF5MYkGTwARdrusekiQRcvwacb+9pwsaD3dKONk/BhZdKylMDB+p+LSYZTAwOFZzet6IKDgGH9pS/qtba4wdn/ACvdNZytr1eRQC37uQRDbjAdVExBgcX8OjBFUVmy3VRsZthTNRNDjmAywq5EOBUs73qZMhW6Pu9qT0DyCFsADwIoVipCIIMkw4w4302uQDFvukZVFRwPuCwfs9f/HJjCHA+8PD26dNiaXurWOkoOAW4bAkGpkTErAVXGcCt+vDdAnAzaE8BthUB3PrTxxTgyt7NkKUWLlAqArE4nWiAs79fKgJ1Vn4crm5iMAy4Zm1ZYabjzBnxwq+URaVLlUdbteR1GNJ7US3g3Fo4hBwtF0GAIdDojH+j1hQUHDwPgtMvEaGAw04LLBHxW7UA3hv7+3RMErPP8H3hNj9DSY7Nnur4W44r26cuVw4qLqjgpr9UUv3rLxWAqwrANTflAFx5in2hFUcmGuCsjevxQxbVyaRqyLGASyYa6sYGxZLmM85wYEbBRrYxBkcBByuK4HJJsWZ7gEWoVARVHG3XAiAh4GjLFsALQcbNHNxcwFnFiHBTvajpzfbKoiLgMHYJUKPbScgtaWUA57doQf1i9JKBWRIMPWItlIeUrUREreZb8+zuAnDVALgNbacyAK7MpSIjfCYVLkASXxeONN0bFadsat3YgAM3hF0a5J7/96+c5cpjyyUBDCB2xSUaVBwuZFNhmXKluABMFHI+6BTMsO9UWVK0pajcXLhBkW++PlRs04LPAwBv6IMYHAItPqtEzmnhAg7t6ahaFMFPMGDZD2THZab8MiQYoEwkR4nIkkeLNq2ZjslVxKJuaD0ZAVyWRAOWijCZ1ME8iYZ+eYUlHnBJm2o7GtTil6UC7tlffhm84EysHxVX9AUFl6biwK76bVth0GEzvl05BMCWBjd4jTT1xtlTANx6KBNJARwmb8zc0qwsau7roZL4m7dUeTzBoIt8MyUYmAwqJM0gedapauAW3nNnoeCqQsG1cBY1ZyY1UQ/nZ1K7bTxFZ8iStXAe4EgcDvoYk3E416aGAAdKLqnimsXiZhhnxDM/DwMur03lVBxaVR9yaFc50CHQcMbHhJRbEm5wrVRlTxHACm5wCUGlQkG9oYJb29NtAQfflwc7AzWdoZa3fcChPc1Q/xaMv2XqQdXXRPUv+syqNz6DCsvz33zbrQXgqgFw65tPEAUXyKTKjoZSrs0QTjSUHofjbWoScM3EsqptBTWEm5p3/+ynRsGF4nBwFXhQOggFtKlpKg7iYAA4H3JoVzFJQAEW2sbHwkyTCgg3VG80cwrABcAB3BBwtDwE44urYZEC9kSgTg4s4JpRwaXY02D9W4b4GyQZgvG3bBebgYuXQ8G6Um/2alo3rlldAK4qAHf6uMgWh0PAZUk0ZGjZyh2H41SczaZawAHMEG64nZwRdru+/EwCji5bDhefwUQDLRdByCEkEHAAD7SpqOKwLi4r5CjAQtsINoy5+XBTiQW39xQBB++VU28A7xWd7UHAYSzTmUHJNZ8RKzPbU7JEUuJCM/2msyVc/+bZU7iqfa4r2icBd/3SJQXgqgJwp45lBFw40WBbtsoch8thU+tGIcmQBFnivhb9GGjMb2kWj/30E9E79R2r4my5CFwfNbuKyw45lXzwFR0FnIKaSiRQsIXgxlnTmHqDz1Xb3poPcDpbbUp10J5iciGYPSXxN8ye6/q3ePwtS4EvJBn8Il++BxUsanE91JldKqlidXCy0DeaSc2SaGgX66YVh8tbLgL9qe7ySQ7gEGIAPNyG2dsGwD302cUg4FDF0WRDUsW5val5lBxACgaAyx0WaHg/PpaCDW0pKjeEG2dNQ+oNPtvSlhYWcI5q80pwlIJDe6oXQkDAwRJXxprC9VD97GnEnkbr37LE35gEg0wuWHu6vqWpUG8zrN4qB7imwwEFF0g0OB0NWa5yH4nD5bGpk2BROZuqkg3KomqIIcwyzPdfOm8Ap2zqd4K/PmpAxZHCX7SqWSBH43IUXrFt+B8cADUcXNyNs6ZgrTGxAKAG9Tb4w991wgVjk1hLCEoXt/lZKjhUb6nJBYBcnvIQHX/DBntniaQs8bdwgmHNkY8LwFUN4KAXlSq4TB0N+eJw+RrvuWwqV/TrJhvqoQ4uA9D8x9xzflICLmRTUcXFY3FQG2eD+QCXGOQATAgqf6aA8/8GtxFqMCPYfOWGcFPW1F5gBpMkCDdQb93f/y1g7QFqaPnDgONW781c3JvJnnrxN8yeZl4iKRl/g1WsZ7oGrHj9CrVqrT12UAGOQo65yn32pZNijfexchHXpoaLfnkVVz9eGuC2T46JnqnvoioOIZdmVdMhZ5vyKag4kNH76GMt2GwpCFpSBCuALQY3BTjVrdH27V8IyBBodA6DDmoR472nOZML5bCnPdhkH46/1b3yQgG4alFwa49+nAFwgTgcNN/jGlx9sThcXpuaX8XVQ6tWCQpu88igARyn4pIZVd6q+qUjnF21yQcFOppp9SHG3VaKzQUbhRuCTcHte0E7FnxrCrAGVdr0l/9NxCatcqOgo9sKehzcePVGkguZinsvnz3d0HFa1Dy9qwBc1QDu8P4I4HQcTi6f1CKgpmg9xOAyx+FsuQgsVgg1TWuHYssnuSpO9abqlX6dRTCTKm5FiQpubW+3BByn4ri6OM6qAjxs6QhvV6lldUFnYWcBhvaTzvA421tKweZaUlsOgjG3ENzgs+z/f78LnxhoksbYVQW6pa0t6eotS3IhWtwbs6d6FV+2wBfVW9KewjpwSx56oABctQBuzaGPREPrKQ2506ToV7W0mAJJgFvKEuZOuUhwfbikTYX6p2ydDYFY3LkRsWI8r4JrEUtaWkRNW6vonvouoeK4uriYVY1Bjqo5H3QAKhwAMH/g3+iMVpSCzag23amQBW7wed767a/DgPMVMQKvpVnAaiJSwTmZ02ERvXqWUW+R2jdd3CsLfHHx1Gh7FlnBN2hPbQYVALfwzu0F4KoGcAc/FA3QjwoxuGgc7jLYVNiZE61bWsU512pIV3ErJgbFUv+ANLcBZphhVWBTt9V26/d/dVRcXquKpSMUcpxl9UEXgx0FGmxTqPFgy6fcAG4w9v7yK/Ld4HeUPi9rb1WlOvKKZ/6qIRlLQ6KLW2r15mRPdd9zX0y9MdlT3X8K9W8AuJs3NRaAqxrAfbwvBXBeuUhmm0qKfuEMLM/GaFMZFRe4VoOTbJCFv7yKWzkxJAHnQo7ArBW3W+RKGLAaBig4mI/99Y9GxeWzqjYeRyFHQQf1Z2rYLCuAjoOdDzHuNv4vzrRDAW0yvD4MeE8qoQAlISrmBrYU4QbxxSd++mlpgOtss4DDujdT+4Z1b1zsjVNvsbXfArVvkdVDQu1ZADcYN6ysLwBXNYDb/74EXAMquLbp2tScyYZSVRwswUPq4lZOUsBpiEnVhtsEbAA3Mj764+9F99S3BnKg4FDFYW1cOB7nQo6CDoFj1Zwbn0ONa7uZAAAgAElEQVRI5Z0V1JRiw0QCvAaCLSvcAHD3XThbEuBqutr19Wp99UbgZurekoW9fOdCqckF6GAIZU9dewqAu3bBggJw1QK41R+9pwA3bZsaK/rlkg1ZVVyGjOrZYbHyLACuRUDwe2krWCwXYhRo/vYr//Ur0UUAhyrOhxwtAAYVBGpIJR0Aci7oKGwc0On15FDVIaxikMPHoFrDrgT6vPh6qNrSlBt8FoD21tHh0gDX3aEA5yxo6VpTs2pILPaWpzRE1r5Nz57C8mBFDdrMt2lVrJNh9QfvZgBcLJuaLPqNJxuYkpGYioOexXFVAZ9YK46quLPDGm4IueyAe/oXX2rAWRXHQ+7vTpcDhZwFnbKFCBoED8wUSLhtLSxa2cDM/D99btjG14QOBTUshKktRbj1T30n1vX2qJOBiVHG428QAoBR29OplrACW8pZU6PemKtmsbG3vCuHxHpP+ewpqDdIqhWAqybA7XvbAC6rTY0W/ULanq2JK4OK45Y0J5BT6s0CDm77ao27Df2ooOCUigtDDoCAVjWu5hRgEDgw+zBCwJUy+89FX8cHmx9zo3AD+72srVUDDmOUPOAQbDjX9irAWbi56g1PSmZJerZrgYu9eaUhZOUQ6HdOXtyZ6T01i1sm7emKt18rADcL7GnFFNyq998SDS0nDeQyZ1NTkg2XXcUlEg5DYmlba0LFZYHcHWfHRacGXBrk/JgcAAPVEVpWquYAOBRAHOx8YAH0/Pv82/5zIti4ZAK8PwQyABpADZ8DhgN8sPVo7YmiQ6jReXlfF1FuFG4piQW27i2HeisludBh48q1zz1dAK6qAPfum6KhpSkCOL0IJqTYcVWGtJq46aq4SF2ck1XF4l+t4pa1t5UEuI1DAxJw5YBcyLZyoENI+fDibuNj6aygpjKkFGycavOVG8Dt0J//xwUcKl6EHMQztSX15+X93QRwKYkFVr2Rgm99kXCVaYesqc6c5lFv3Vjci0uTJ9UbnLyXPPxgAbiqAtw7bziAs0W/sYvReDVxgc6Gsqg4uAIXrh3m1Mbpg4pArqaTBxxaV0et4MHc2iLquzpEx9S304YcVXM86FQiAsFEYZV1G/9XJTVsjA3VI6pJTrVR5QYJlLd//5884PR3g9+bTN5AAofArn6wR1/aMQ1uTFkIm1jg6t68VUOC6i299k2WiLSdEgvv+EkBuGoC3Mq3X1OAy2RTORWHrVtesqGsKo5Czks4EKta29XOKjhzoMoMq4rR+bADwJUOuXBszgedta8282qhhckBbsbHJ6FGFRsFG6faQLlhGczeX/08CDjuOzOga20W9UO9HuDUZR9V7C2ZWGDLQmJdC1nUW6I0JJxc2ADlT22nxE0b1heAqyrAvfmqBpy1qdmSDWVWcUyPKtvCxWVVNeQgs8cemARsob8f/MsfJOBKgRxAAxMQoSQEKitUWtyMqozO3OPwPnxOnDHORsHmqzaAG2SIYTz2xacs4ELfkbm/pUWsGO4jC1mCimPWeuOs6QyqNwDcvJplBeCqCnBvvCIampsqr+Ji3Q1c2UjQquo2rolBsby3RMC1tYi3/uc3ol2ruDyQo7VyeUCHUEJYZZnxf+hMoRYCG1VtCDfov737/GQCcAZiKSeFlaN9+hqnFG6koDcVbiqxEO05hesuhDKnedQbdDDoQvZr5s0rAFdNgFvx2ksEcFbF4Q4hYxe6xUX28jnJhvKoOLvSCFP86yQcqFXVBcDkYtF1/d3pCq6NlJHAth7P//oXon3q/3JBjquVs5BTttVXdAgkCqm82/gcdMbsKFVsFGxUuQHcoHNj0/CgA7iscIPHrRrDEwsqN5iT1hSunob9xmvhxIXDJBa4shAv9iZXDOHq3kjszZSG6EUidN8pxt5gf17XdKSA2yyBW8XKROpf3isamk9Ym2picbjCCJdsmE4sjutRJcW/qVY1BLlBUT/QEwYcwgyUCW7LuVXefvTLT0WbBFwWyLm1ciHQZYUdBVXWbQU01Y2g7LEt/QiBDd4nwg3KYVZ0dYS/rxQF516hnoebG3eL1LzJhnqv5zTYtcC1ZUVib0S9rf7w3QJwVQe4F59TgDM2tRwqzks4QParlOJfYlXXcs34XjxuxVCvOmABXHiAIswcsAHUFNgU7FrFXRcmJeBikIuVkVDIYRAfQEMHgsiFk4JUDGzJx2PMz33+LGAD5YZFzeY7wu8q69zWImNubCvWdKxpMLGQot6wfMlbNYSqN6gOqC9W8p1VgP+3SrSU1D2/RwOuHCrOu7SgXPHX9qimlY2wVpVAzqwZR+NxBHIrRzTgHJhRxeZCTUFOwW7jyKBonfq/IOS4uBxXFJwFdAg9CzwLrLT78H/pjEDFGd4DDqXYlCVFsMH88Z//x54EsoJNPw6WSioJbvBb5rGmibIQ0rVg6t6yqTdYEqzmqcdn1QFeieN7Nr9GRQC3/NndouHMifKoOKe7wVNxsbIRk3CgVjUlHsdAbvVov2c/KdxwG9WbO9d3dUrAJSHHW9akmkvaVg52ACEKp1K3EWY4I9BwDoEN3jeMN373a/Vd5YQbqL6ajjbdH0xiblS5cd0KHNymYU0TSyKlqDcA3OL77ikAV20WtfbpJwngpqfi2B5VTsUlrqHaqarX5ZpxFHIkKK0XxnRKR3zIjQ2IZWhJHQsKcHOBxt1umfq/BOQ4yxpXcwp0ABiEDc4Io3LN+Lx0TgMbwA3e/zO//NIqOPzOMsJueU+Hm1Bw4JaSVBiiBb1pHQsBa2rUW6RrgcTeAG4wFmzZXACu6gD31OOi4cxxAjksGWFicdG14nRGNajirFW1F4mmV+BKacYnVjUGOQCchRwFG93mYff+n34vKOSSau5bNstK1RzaQLW+XBh2FEpZgEcf729TqNEYG7wXVGwINoAbjAc/u2jVLoItI+jqejttdwmECOBEA9lSJ2OaTCqwJSEy7uZlTTlrGisLyaDeAHA3rlpZAK7aAFfzxKMe4DgVF1nS3CkbUf2A67vpxWnSrCqFHK78CzOz+m8GyMHqGDhstpQHmq/iXvztr0Tz1P9JyFHQgYrD4ZeSUDUXB52FHafufGjFblugqdiaD7UY2KDWD8a2iRENOPhutH3PCLr6/i4LOA03J2PqFPPSuBv5fQFsFG5c1rQXMqY0a8qVhTA9p4x6gwUlrlt4SwG4agPcssce1oDLquKylo2kJRy4lX9dq2ovGE3icSmQg/iQUnEKdD7EYref+PlPRfPU31jIJdWcG5vzQcfBDsBjlR1uY+lG2oyPVzMqRTpTteYrNgQbABpgvaavx8ska8gB7BB0MIMibnXHyoFusYbY0mxwY6wpuYizW9CbZk2ZxAJT9waZU7SnsKDEVVdfXQCu6gD38IOi4TTAjQIuo4qDMyXsWI6Ki1jVEuJxeSFX19NpFFxe0N1z6Zw4IwHnQi6u5pKgywo7Cie6zSky+ne67UMtDWyoRHnQE8hp0Bm4EdCtGuoxtrRkuHElISnWNE9iAQp7KdzWFgtdzjq4VySLunTn/QRwFHLJWFx0pREHctO1qq6Sw9ICOYOCw8EkHup7KeCsXQXbyh/U9v5NI0MScBRynGWlag6AoWyrAh1t9wLQcbCjUKKwStum/+dv42vh7Cs2BBvMJ/7+tfddINjwu9DKTcczDeRAyUEN3LC6zKMTc6O2FH4fvxyEZkypNcVWrCjcpmdNQb3BohKzuWSiGt9bRQC35P4douH0MQI5LBmBGSEXWRCTU3HOhaIjVjVROkLjcTTpQDOrcbu6or+LKDgXcGmQq+vqEKen/mYgR0EHKg4HAA4HBUca6BA+Ppzy3sbn8WcKNbSi9P3he37ld//hAQ7BBrOCmFK/zHZri04o9NoWrGnBzVull4u7maxpadYUALf8+WcKwM0iewpArwzgdtytAcdBDgFnM6q8ipuuVaXxuOlBbuVgdxRwNgFBD2q7feKf30jIUdCpuFzYtvqKDqDiw45Tdj6g8t62QIPEgXpNCjTYRqjhDJDe9YsvgoDD7ycBOK3e4O+mtxQVNCrqPMot0UifI+7GZU0DiQW5mGtLk1j6yM4CcNUIuMX33CkaTgHcKOCO2+4Go+Is5EwjPnehaMeqcs34OquaiMeVB3KrMwLOHsgWbmBh3/vz78Wpqb8lIEfVHLWtND6HEPEhg/Cxs8pkUkCF4EYf425biPqv54MNlSfO9146lwAc/T4s3EABuyqutqPNAm6YloLksKVRuNGsaYswcTfTTJ+WNXVjbxJwzU1i4Z3FQpezzQZXRMEtunM7ARyFHLGqsKS5HFmtqtuM7xQAy9V/aemIrY+TrVwpRcCwrDXGd7iY3JrhnkwKzj2grZXd8+ufS8BRyFE1FwNdFthRGFngWVil3Uf/399GwOKMQMMZwAxqdNPIoAO40Hfhww1uL+9qV4BzVFuJcJtO3A1OpKDaqHLzEgsIN1hM4qbGDYWCq0YFt3D7NtFw6iiBHGZUS0g4ZI3HJSAH9kQ15GeFXDC7OtwjatotsMIHL/OY9lbx4BeXxMmpvxnIpYMuaV0RKAgaOvtQKvU2fU66ja+Ns4KaAhvADQC9vLNdAi7+3YByw+/Iqrj6ng6b5JGW9DLBjYu7cdZUr9TrZk1P2tVxYKWc5hNiXm1NAbiqBNy2LRZwCatKVFw5rKrsckhPOoQh5yYeHMiRZZbARtmDEw/SyAxA1FDcNjkqTk79VY/8oPPtK4KGQqic2/j8dOagBmCDcejbP+b7bhyL2ipW9HZawOlMKShpKMzmLxqjuxSoLU1TbizcSrOmcimwMyfENfOuLwBXjYC7Zctm0XASFBxVcSVYVa6Ni4vHca1cNB4XUnJQFIrV76Q53+l40JADG5UJcL7Sg1Uy+rpF09Rf5VCg+1tmRWftq1J1CBoKH247C/C4/6P34WvZhIibDYb3Blb7jT/8Jtt3Y9QbnhiUilvV36UAVw64BTKm0bgbuQQgxoJhiX1a80atKQBu3ZGPC7jNMrhVLIu6YPMm0QiAS0Auq1Vl2rgcq8rE40qCnJddDUKuW4CNCgKOgZpUb6ji2lvFoX/82UAOYJcFdH6czoWdC7yQyqPAim1bmIH1dO0nvC4d8L7oeOrfvwp/NwmouXCDGNzqATcGalRbqM4tpNxKglsy7pZmTWGlnFVFDdysBHxFkgwLNjaIxpNHXMDltKps6Uga5Lh+1VQllw1yK3ojgMODmABNwpDcfvOPvxUnpv4qB6q5PKDjYJcEHkAvCb4kvFyIxRQago0CDbYhjohjx6fncwCOxuEAdi1ijU7yOJa00nCjiQW9Uoi8eDkmwyCcArE3WAbszHEBS4LNtgxi8X4qVAd3c8N60dh0JKDiSrGqtFeVqY/TRcDBzOq0INclIC63si/czWDUGgc6Dbln/vPn4rgGXB7Q+QkJBA2C53LN+Dp0RqDhDIkTGLeODuUAHCo4BTdI3kTjbbRDoRzKjUsqOHCLW1PVfnhcQLdOAZSrZt13UBEFd9O6tRpwIcilWFVzDQdiVdPq40qCXKROzrGrXWIN180A8EKowUwUm7993+cXJOB8yAHskooOLGwyTodgodDhtvNAj/t/eh++Jp3xvYHNhvde254zASOTDOq7W97ZZhMJrGpLSSjksaXThptSb9Bnfcu222bdwV0At0IKbv6a1QpwUsWlWdV4ATAEejHwKy+0C2dbalVp0qHskHP7V2vaWgWMINQikNs4OiiOTf3VQC4NdNa+xmGH4KFQKnUbn8ufLdAAuip+iFB+9+vfW7D7303Kbfgu67sI4OCkgkmfxKoguv2KZktT4UbasFLgliXuhuoNADd/dbEO3GwEakUU3PxVK0Rj0+Ew5GSHQ8CqMqUjqfG4kiBHi4F9JcfH5Wo7FOAk5FCt4UGMtyPzkR/+Io5NfZMAnQ87hAedESwUNj6IynWbvoZ9XVdpwnsD9bnnN79wgY/fR2RWJ4oWebJY0dOuVl5GsLGWlPaW0vYr2qHQKuSagV1qUQYIV2yAEx4O2Efk0CdIYkvDcHPjbhJwsErO6WPiulsWFAquWrOoN9TWiMYTADgNuZMRq8otqzRDkHNr5XzIdYq6zjZ5UKoDVKu5CNB8m/rmn/9bHJWAA8gp0OVVdQg9Ch4XSMra0vso+Oj9yW3M7roqDV8ToYYxRJh3fHYhl4Kj3x1sr+oll3yUqi1mSacLt5SMKSQX/KQCSSzIJcDg5HyyuBbqbFRv8J4qouCuX7RQAU5C7oiJx9myEVofx8Xj+LXjyqfkmN5VUyvnqzk44FS93IqudgW49lbZ2QABcnnAZoTck7/+SgIOIJcGOl/VIVQobLhtF3wusEJ/456H3oevTWd4fzAaR+CaFcS243dB79PW3odbDWRQoY2OUW1msUpjSbPCjag2UG9GuVG42avSm1q3rHA7fUys+eCdQr3NQvVWMcBdO3++aDxxyFVxWeNx3NW4SNIBCjBNTA7jcVlicrROjrZ1sRlWDTnTw6rU3MoeDTg8YCnoyLav3PD23Z+cE0emvpEDIYezUnS8qgvBDoFDYTTdbXxOf0ag0fnoD99Y9ZYLbNbqy5NHrnhbzJbmhVtaxlQnFWDhVm1NYRGJFS89XwCumgF39XXXicbjGnCZrCqNxwWSDgRyBnA0s5oZcsy1HQzk3Licb1lX93YYxSbVG1Fw5jYBHd6HgFs/1C8Oa8Ah6GBGyHGqzrewFDA+hMp5m74O3Yb3o8Y3Aiy3/Gyo1hBy+L3giSAw17a3inVQ+oEjsVClVm0mmZAVbhhv0zM9EeoTJLgBo97QlsKs+0yx3o3G3eQKOaeOiZrHHykAV82AA6nYcPSAVXG5IRfoV60k5HzL2tch1vZpwOEBy8AMoRaaD/zrawm5NNC5sLPKLgY8CiLYjgHPf2zotgUagE3FDhHIu371ZULBJW2oVWv+3+o6NOAk2PwsKWNJzVWwVEJBJhJkUoEqt7xwo3E3vd/pYl4ObtB+uPiuOwrAVTvg1n+8T6s4quRsPE62csleVS8el5Z0mBbk6LUdfCUXj8uhmguBK+v9r/7pt+LQ1DcGcgC6LLCLAQ8hFIJUlvvxOeysYOZDDeEG8x2XJiXggp8dTwSBeQWUiORWbXSpcciYZoCbszoIVW4UbuGMqVzXEDpxYH89eVTcXCyTNGsBX5EkAyi4te+/rQDHWdVEPM6DnLxYDV1aCc6suH4czMwaclG7SntXFeQSXQ9sXE5bVqLmlmOpSAnqDUDwyC8/F4em/qLHNyXDDkGDAErOaCVjswsxfA58bn+mthq21w302mQL/T4CQPMV3KpuXM4K1BoOsKF0gFrDQRerDJWBgIKjpSA0oTB9uMGJeV7Nsll7gMOxV82jYoBb8+arovH4wRyQgzMkxOK8eJxJOlwmyNHllgzkfDVnQVffmcygBhUMPej19u3nx8XBqb+YoWDHg45TdggZHz6X4za+lj/D+zr4r69duAHU/M+bAro1MvZJwBaMtfk1blS1BTKlEHcjCSk35sYoN64cBPZFotwAbtBjfc31xTJJsxWiFQPcqpf3isZjFHDUqkbq40qEXDi7SnpXQwXBPuQM6LSSgANPjnaxqqsteSD7B3bk9qreLnGAAA5hl6bqQlbWhw/czgo77n+5+/C16fz87/8j/D34YIPvw7+vrVWsk6pNf7dZVZtjSSsEN21NAW7rD3xQ1QpptoIN31fFALfi+WcU4CoJuVZSQkLXkotmWIll9UEHQW05LOjWdGvAcYolAjaqbj78/k8ScgC6LLDjYnYUNrDNgSnvff5z0tvwHuz4i9j51adhwNHvgQEbwk6eNIJg81WbZ0lp6xWcuJhMqdOhIOvcsig31alglBuBGywgseqNlwvAzWIbXDHA1e1+wgIuCDkv6ZBYPy6/XXWKgbPG5WgPqw85T82tQ8DRgzjn9u7f/kJ8PPUXORByOKOiw9kqO4jbUcgkExUUSNPddl8LY4bWWt82MRIGXARqCDfIoNpYmz6RhGJtMdWWGW4khotLHyVsaRxuALi6p58sAFcA7ipR+9jDohFKRQBuEnCMXcVWLp104BfJvIyQS1jWiJojoMODlKqyPNv3/vSCAVwIdJyy46GXBJ8LJxeK8b9ZkCFY8TX9ua6zPQw4CvwA7FZ2ojrGBALOXiIhBjeq2hIxN5uIMu1Xss6NqXWTRbwUbjZjCrZUDthHmw6LpffvKABXAO4qsezB+xTggpA7zHY6lA9ydBUSsp4cHhQANxzYkI2zbtiGZa5lA7e3kKbMpNKDOOd24+ig2D/1tdg/9Rc5EHI4o5rzZx8y3G0EU56Zex7/PvpewGKnAj0ANjw5rOpCoOGcAraslpQuNU7br2gRb1S5heEG/dWwHD/Ge4p59mVsK2ZRl9xzlwVcRSFnr7XqLrUE8TlSPgCgQ8BJJUdKSaRlDau5FR2tAqrw/ZF60BMQfjT1tYChQBeGHUCPwoXb9mE0ndvc8+N9COAnfv0VDziEGvmc8jvB+8m8xgDOB5sfa/MSCfBb4UkqodpSykAo2Ez7VUi5qYypXLgVnAYUq584LGClnAJssw9s+JtUDHCLt28TjUc+tpA7Ru3qodTykekpORdy8bhcftCt6tRwa0tCjkIvBrz3/vFHCTgEHQc7UHgIFX9G6Fyu2X89evuOT87ygKNgIzBD1UbndVIV+3Dzyj9iqi0BN2pJU5IJJcIN+quvW1Ask4QwmY1zxQC38LZbFeDKCbnUEpJwrVxCzVEVANtUzUlF5x1sEAvS1nVNZ0tCvVGwpW0D+Hb+8nPx4Q9fy/HRD0rN8bCz6i4GPAogf5tC0P9blttopdX8tVgbKvAFwFGwIfDgRGBGi1jenhNsEdWWO1Nq4KZrLmWdG7WlVLkdMcoN4NZw7ECh3mZx/A2AWzHALWjYYAHnQE4nHYKZVXehzISSo5AzbV3Zuh4SkPOzrD7oQEFgXA5niMt1tdgDlrGqaYCDv289NyY+0IBD0OGcDjwXegigLLAKPQafw52thabwjSlT57MbqFHAtYr6dlyU0juJwHfsn2j8E1GoeDcRb2OSCSzcoItGtWDBvkYTCmhL5co4xw+Jte++WQCuAJzy5zetWSUaD++3kDtK7WqlIZfDsvqQk2ouCbrlFGwpVtU56PX/rezplIADyOFAwNFZwo5ReAgcG8OzMLL3qSSGCy24j3usvQ+fOzH/8LV4+ne/jKvXANSsgmsVqzpyxtngNyFgi6q2UDIhFW5uttSHG6yOs+L5PQXgCsApwN1Yt1wBzoHcARKTKxfkspaRuD2sudWcBzpQIfKgpaDLuf3O938U+374Wg6EHJ0p6Oh2GvQSYNIJjcz3A1AD6nLHFxeTgAsBPgE7+M5axJoOotx8xQa3c6m2WLyNWc+Ntl8Z5ZYON2g7rHn4wQJwBeAU4OYtXWIBd1kgRxv0Y5Dz43Ipai7NtmrQgQqhqoRTaWn3PfafX4l9P/yZjDDsAHwUcmnbBoIaVv7ttP+nf6fQhYvnRD9XAmpgT93vah1nRVPAlq7aYpaUz5T+//bO/Ntu4sr3fxOe5/navufOg20GD3jCeMAYjMHYgLGxjbENno3xgEeS1+nM6aTpzMlLd5JOXjoQCCEhb3X3ei+v2/ePqLd2qba0a2tXqaSje+6559YPe5WkM0iqU/XRdw/SgSeDZC5pUucmKTd9T/X1K2rJxvURcBFwCeAg2zR69QKB3CXirhYoOc8TSGBAyo8+N5ALisvl1Zw304qKgqiN/i/dy090l5JxKLtNP/lQvT32V8sy4CWwA4VHAeNapkCquuz6btwOxyLCjUMNz5dv1+v3S8XZErCR8g/fLVdiGYicTCgLNyhWnz/QHwEXAZcAbvqc2QngaoMcvUHfQI7e2hWUfChSc6w4WFJzJkY3+OW7TSu4gW/8vTo79ldtHHSwnsEOlzPohYIP4VS2Rdc5a/+qXv/fH8uAQ6BhmwNb4pqCktMJBrxQ4IUD21yczQM28a4En0vqyZSSOjdMKOgnUsPTcPBOnOuX1awlSyLgIuASwD0ybVoGuDogR58K7Lq1K4Wc4LI6H7skqbkw0OlEA5/MOMkD2zf/3+cp5BB20ErAk6EH8LPBV30dQZq19Dh2/uqnbsDxfjBqLXFPEXAPVM+X7nljbFqx8bsRfBlSUbUZl1SMt5VzSxPAJR4HjOl2rP2Kx2SY08oyEej04fNna4Kc8KglEXJCXM7psgpqjjxIE5IQObeVKbpuHVsSauJwsgdA7vmPf6XOjP01NQo5ukxB41vOq74MVtJrvu+ir8GxPPrhdzLA4TlCy8+TvpYuJ5Dr/xJJIjDFlouzcXe0qmoTkwnFMTcKt4EzJyPc2ly9tbQODnY2+NYJNXrlfBOQE27QL1RyBnJl1Jz1tGBJ0dHHMOHyHdULcbh0AptaLz7ZC9a3/PwH6vTYX7VR0OEyhZxrmYKo2WXXPmA7/C9sDmZ4frwf0nVUb0k7CIBrFmxBqi1zSfPxtkC4wS2GxuDxX1EpZUqpXfuiZYW+0AH9x44kgAuCHK2To7d1hULOF5crSkBIaq4YdP0f3MllCC3g4eT3tEPf/ro6PfYFsQR2AD2EnNT6QFTXa3S/r/71IxtuKcDsIt7k/G2ooZu66oP7FtzgIaWJUnbcZsUVWwq2gFhbqtp8Lum72S2DkNhK421XUrBpwF27FEtEJoF6A+a0FHC98NBLgBsaxOLQoHQEDe500Hc7lIRc02qO3wHhAJ12V8kkfJDE6AZTwOGEJu4aB4AHcsf/9if11tgXqVUBHoVR3csA213/+nNbrfLzQXfdarFEJOmf7g/uacCB6x8GNl76wcHGY22CaoPHHelHHflUmx9uMDZjiUj7q7eWA677wPNq9PK5DHBOJUfueKC3ddGnkNBbu3QZiS8uV0HNWUkIB+hyMbr31WprQiPohLgcAAGhx+Cw/9N/VacI4CjsYNkGHqxnKo8uVwUb/Q57Odv3Y2xSzf0AACAASURBVN//B1vB0fPB87Ja0hemj/oe3C0Gm1O1wcXImH5+m1D+4VRtPrjRTGleuekL77VLasFgLBFpV7eUHldLFdyqvbsTwLUacr4EBI/N8SRESdA1PrinwPVKjECMgo8BjcextvzihxpwADlqHHTSeh5+GZSqvibtp/t/fDkDtAUyPOc80MA1zfrmvhp4cCcDHFwsAGZo+im7RLGl7igHW5FqK3BJb5In2VhlIG64gacxe2ksEaEgadfllgKua8d2NXrp3DhAzhGXE11WruaKkhDGbQ0EXd8Hd61JnAcdAgDbvLob/s431JtjX1hGQceXJQCN1zbY96Evfp/AjYOaQpwsU6jR5eH7tzOg1QW2SqqNuaTwKC+SUEDVplsTRpk2fXpMMkyCOFxLAbds8yY1Cn8ATSF3uURMLueuOpIPPpc1WM3x2jkP6EjWdfDBbQFwVLk8ULkb87kC+tIDdfRvn6mTDHJloMchiOsS+PC10HbnbzD+Jqs0rtQo1HB59Qf3bLjR/0UAtVZWsRmwpRlSZ6wNHlRJVRuDmxNsl9IY8eDpExFukwBuoCpbCrgljz9qANcs5EjyITQu51Bz9uOXHGrOcltdoEvidMP3bxUAjsIOlkkigiii5z79tTo59hdjX2jYFQGPAjAUVr730e+jyzr+xqAM55EYPz95vQfib1J8LQRsacGuSSIEqzaWJS3hkqYJsKsXVc/hWCLSri4pP66WAm7R6LAavQhwQyPuKlVyV0h29SrJrr5L7l/NqTkSHKZ/MB2k5gLd1hzoDOxQcZgWEg2oVMq3CfA2/+KH6sTYXyzLgAfgy6CHyxRCdS/jPqDt/sqXtQotAzTeD/3gntJ+gxCANuhTYzp5QGJsRWCrqtoCXFINOJPxXxmfIjJpFGxLATe/r1eNXny7Scj5MqzEZfVlWbma425rek+rpOikGjpb1fU+uBMIOLfqGfrWV9Xxsb9o46Cj6zb0UPHJAKSQClum35csv/jn3wWemx/yg5BUSNUaKfdIn9NWFWy+DCm4puRCCGOEuqTwjEK4cKJh2RK0WM509YJaGp8iEgHHpSKsz1210gCuCuTok0g45HwuK0lAcDXHQYd/CQeAQwP3Rxu4Q6YUAZSENpiERHEY5QHqhCuWsHUDvC8lcbpX/vOTFHIIO2wp5EKW3SDMIBbyPdt/+ZOK52YDL6fWJLBBf6dmfgfzu+jHGlmKjYOtINbG4YZQgxY8BQfcoIYzlohMjho4YE5LFdzsJUvU6AWAGxq6qp6YnK9WzuuyllVz/NHo8NDDkqAzsBu6d7MWCOz+/T+rN8b+YhkCzteGgCr0PXw/a777zabPrfvBvUA31I6xJQkEXvYRADavarucKTYNNxISgfAIKjcIm5gC9dnLlk4aBSMJjam0raWAmzFvrhq9cDaBXAo6F+Q8BcFWXI6rOZbihys1mi82l6q5kqBzqLowxWarGv6ZJ370PXVs7C/aOOj4OgfReKwf+dtnTcMNzrEX4m8h8TVvZtSAzfloI5Mpxd8eW+qSUtWWgxuJAxO4jV4+r6bNiCUikwWSLQUcDIxReKKIBLnSyQePywqDlQ5k+heFMNCDQAcTyJjXdZXjdD33Q+Nwbsj1fOXL6tjYn4klsAuFHodgs+vPfvKrWgA3ACUh6OanLqhHrUmuqAU2wR2tqtpYvA1Vm24vn1eDbx2P6m2SlIi03EWFHY6cPUUgZ9RcbS5rCTWnQcfqoaA+CpQcGkwihBy2XthlMaO+e+/XAoMXvvidOjr2Z8ts6AEAbfDR9SpQo5+nyxt/+k+1nNMwqLcUbBjjzMIB6b9Z1QE2X4Y0p9pklzSBW5Lx7zn0UgRcBJw7CDl08pgaPX+mecg5S0kY5Lia43VzwaBjsPOC7j01eLeeONy2X/1YvT72Z20cdNJ6Hn5UAVZbxv30f/0r1QH34L5aBfbBfQM3O2lgxddqARvPkHpibTnVlsXbwCXV90/D7YWXzqmVe3ZGwEXAuQHXf+SwAVwVyMFVlNz5YEGOuawwaAFuaPRvCjXkeBKCZVudGVcX6OykxPDt69VhQOroRr/7zRRwCDreIoDGsz347x83eT5wj+491QPxNyu2ZpIGOahJyYMAVxQuWDQ8Acs4BrC1MqREtUFCAZ90Ay2DG9RvxhIR99xux7hcS2Nw0AG9Lx9Qo+fOJCYpOZp8CIrLsQdo+hIQMMD54C+Kz0mgSxMSJE6X1tIloAM3SycNjGrhCYQy66/+12fqyNifLeOQG+/1p37zswqAS6CW9sOD+6r/7i2dnU7LPHJggwsICRNguIDfXsVjbGXB5lNtGm6kCB1uLTTF6QsGB6KCiwrOTfnG88+q0XOn85ATkw++ejmWZS2j5moHHVN1BnYQh4O7Gpq7s+G+euaPv1avjf1ZGweda71Z4PHvXffht8sDDt3SB/fVam331NDt6+yv+fAi4YBaCNh4nC1XsMvr2sqotgxucBdOLBFxz+2o4B55RK3as1ONvgOA80GuIPngulkfrrxYt4QtdUe42xoCOmeMjiUkUlWXwW7wzk21+sE9BTeWZ+bOmrpU3fqffqheG/ucWQK8suDj4Apddx2btT0HNAAbOfcH91jSJlStCXcgwO+SA1uBO1qo2ux4G6o2fXsheBMX31bTZsyICi4qODflu7ZvTQAnQq4gLud0WQvUHHdbeYFwMOgC4nToUt16Vw2//16qXPREh8lOJ7wGX7HC6/va36lXxz4XLQ8+BKENQARheIvf87l67s+/zas35nqjUs1Abs4Vz/nBPdVz707ifrpc0Jxac4CNhxmK4mwcbL5Ym0km2HBLCtMHTxyNcJtEcANF2fIY3PJNG9ToO28xyBk1p2NyBnJVXFYrAQHJCFKsCYOaq7k6QeeI1VlgS121zGXLAw8UTx56B/7zY/XK2OfaXLAr2u6CYdHnNv78+xbg8PgsmAGsCcyk5f47t7ISHH0hABXMSnWgH6X4mhRjCwIbd0d5IkGOtWnAGdWm77y58LZqHHg+Ai4Czq3egKiL14yq0bffSiwHOpZ8SCEnuKw+NcdBh+4qthx0oOC4SSpBu0XkzgjtvgqqjsCu9+77+YmfuqwIOqHVkMvcu63/+pMUcAg6V1sErNDX8fsHv/EV4mKbYyqAmQS4ofevJ0AToeYCG7szBX8X/nvx35TeZqUVGwcbcUc9qk3fWgiJrwtn1YrtWyPgIuD8gJvf26NG3z4VCDnBZU2zrEICwheb42pOUnR80sA6Tija8swrgo/fIXHjqhq4fSMPOA6HFHiZetMqiSi+Nd/7pjo89rloCKLxaA/+7VPh+CmQi5Ubwm7kBn8emwtqjvgaTx7A71Mn2CBTylRbArizum5z0ZrRCLgIOD/g5ixbqkbhbgYv5Hwua5NqLgR0ouvqgh1TdAx2w7euCYAIgIIFvQR8h8Y+V9RcwKtz+7bf/iyLI9Jj4pAuWG9A/E27n2WhJiQOQsCmVRutmZTq2uwMafoQCK3YEtWmbysET+L8WTW3a0UEXAScH3Az5s5JACdCjsfmClxWp5rjTyfhBcJCfE5SdKAOQlUdKDyEG2tRwTTb7v3Lb9WhsT8JZoOPQhCWywCPf3bth9+qBmgGvL47Nx3943BBJbVWB9hEdzTJkGKsjao2fe+0iQ1PnzUrAi4Czg84iMONnj6ZQU4E3WlHKQlPQASoOcttrRl0MOGo60qXCeR6pDgcA0AI/B7/yffUy2N/8poMQAmKYdtCjivkPYO33iOAc0HNpdYCXNEixcbB5nNH4WEQRrXp2wrPnVGDx1+PcJtkcJuQLCrsdPD1V9XomTfV6FmwU+EuK9wBgXc/8AQEV3M8CVEFdLnyEvOsMFHVuWHXHxKHCwBe399/WR0c+5NlRcBr5nVQjCHwCnnPCMQn6QWALkv9Kak1UNQAMm709ip+i1UR2OBBD9olhYslAxuMNXPXTePAcxFwEXDF6g0A1/vS/gRwPshBptWbZXWoOQ669P8fJLc1UNGVcV9xspIJPHTz3dpAse/ff69eYpDj0Ktr/YmffVjbcefghv3EW540wPUc1FhW1Ak2HmdzuKMcbng7oS5IP626tm+JgIuACwNc9zO71OiZkxnkNOiMkit0WfkdEA7QpY9g4tnWUNA54nRlVB1O3vcu1waKTb/8kQYcQK7IqoIOv7f/a39Xy3Hr+JsrpgZ9hBDjLS/1AMhBkihIsVUEG1Ft+m4bKEh/57Qub4KLc7TJ1QctL/SFAdK1bXMSh4NYHMANzeWy+tRcsNtaN+ikwmF83HW+ri6Jw91Vq+/fbQoaw9/5unpx7E+iIZjqaEEphrie7veYc71/Vw3evJZP1nCY4boEtbrAFuiOJrcRmjiwBtxbau7Krgi3SQj4CQHcUvh/VIAbGlVzFHI+Nee71atUfM4ousIYHZYcCDEglwuLk/baJdX/PtTDAdxcFlA6YuJ0z//tE3Vg7DP1YqHJIHQBkm5/8tc/Lgc4ALfDhiHhUlaphUItjbF5FFsKtnzpByYRMNZGVVsSIkmK0qfPjhnUyaheJwRwi4YG1OhbJ9ToaTADOgo5n8sqqrlAt5XH56xEhAt0UpzO5b4i/FDJZe3QjasZAJyQk+CXB9/2j36hAQeQGy8b+e43HIBzgywHbwM80QUto9Sk+FoKNvjdjOkiXRJjKwKbwx3VD4OA+K+542bojSNRvU1C9QZAnhDAzVu9KgEcQE6Djqo5h8taRs2lbqsjPmeBTnJdDexgElmGKo63CDapTSA3cu1SBjhJ6ZSA3toffEe9MPaZ15oB33N/+4NHaUoQdkOv9/bNJMbmAppLqaVQk26pImotLfdoAmyQSDCxNq3aDNgSwJ1SPS/EDOpkVG8TBrhZixep0VPHPZDjsTlHAoKrOe62pqAj6X/9hzemfk4CXVOqzig76W6JqxdU4+5tP+Ry4KPqDcAC63dV48v31f6xzywrAl6Z17d99D/dgMsdoxtu4LIOwO1ZADFuUrLABbVUrY0n2ABymWrTd9qYEqaubTGDGgFXQsJOnzkzARyHXFU1x0FnUvtpXEXXzhE1543RGUWXA51L1blcWFR52eTuv3W9JODc8Njx2a8swHHgNbMOCtEVTyu7ffja5QRuGmhCBrQs1FLFBr+TMbhQpeavZ0vGBFVsHGwAOXJBPXsqZlBLzO12A+GEuKjQCcNvHMkgx0GHcTloc7E5Uhwsuq38di9PfE4CXVOqzsCOP80EJvGV82rwvSu1gePxn32onh/7o7HP1PNjxeaDHv1848sPajnObrj/1Jx7rtX/d8DcT5dSS6FW4IbyWjYrxgZFu+XApgvRz7wZM6gRcOVrY/oPvahG33zDAzmSgNCgI7G5MkmI1G0loEtdV6LqUte1jPtqVF0uA4uxO3ODt5nkI1cv1AIOUFF9X/sf6rmxP+Ysgx7Cr1z71B9/Wdsx9r5/IwOcC2hloSYlDsYJbFi+NH327JhkmKSQmzAF17NvbwI4DjmfmuOg85WUcLe1GdAFqTqTyQPYeYDXuPN+bQB5+ovfqH0C5CTwhW57DO5eKBlnc71/4Pq7LEmD4Dd9pPsK+820aSa0jFqDGCtcrLJbq5yuqBVny7ujCDVsh469FuE2SeE2YUkG2PGqHdszwAHkOOgww4ptVbe1Kugs99Wl6nzxOqLuCPD6b76nuu/fIXZXdd9PzAUK1/b1v/yhBhxAri4DZejaX9j2O2r1/cSGIXOKWWgEfyWokfo1Sa1ZYAOlLriiRWCDiyUWnENrxlvP/n0RcBFw5V3UFRvXq1H4E+iTBm4S5HJqrsht9cTnUtB5YnSW6+pyXwNgJyYoEuANXbusIDZlQ05az8CHAKQtwGbw219Vz4790WtlwLfji9+UgFsGMvFc7t5OlKwENFdMzXI/XVDzqLU6wAYxX3IxjRnU8nO7nRINE+aiLoFHl2vAAeSOVVdz3G3l8TmeiJBAF+q+ulRdzoXFDB+4WcZgUl96R41cPpcADiDHzVJ2EvTotgSAO//j39TesT9qK4Jd0evr/+UHqZoUoeU6Pn4e9+6o3lvXswJcC2jM9SwLNUutmcSBBDb4nS2zM6OYQMhUmw02XYT+1gm1eM1IVHBRwZWn/AJ4dPmJo2r0hAFcWTXHS0paAjqi6nKwI8quAHg9t28mCk4AQwK9u6r7HhiBoAMuG3/7Y7V37FOPJfBDCPrawW99xa0s6bEELA9cu5LBHcs5aAt9lBr0nTHo19RMXC0IalK5hxBj464ocUdT5YZhkbdOqHnxHtRJDfgJU3Bzly83gOOQK1BzhW4rKxIOUXSpqmOxG1AG2kjwGiZbanQykkmqJyudwKjokrb/xrs2vBAYHGK4PdciAO+q4e9+Qz0z9mnT9vS//y/5mHL7JtD1vDYMmeMQoFkxNeJ+5qDmUWtSfI3VsuUVWxZnk8Cm77A5dVzNmDNnUk/wdnIXJ+JYJgxwM+bOVaPHAW7UqJrjoDvuLinRao7H5yTQSTE68gc4KehInM5yX12lJkzZFai7oasXy8OEw4+s7/q/H6k9Y5/mrAz41v/6R+WPyQE4yBRn6ozF0nJAqwK1ULUGbilLHhQoNgQb3GkzdPTVCLdJ7J4CUCcMcLDzkWOvqdHjr+dBR2NzZZIQVUEnxenKws6VoEB3C10waC++XRtMwI3d+Lufqj0P84CToOfaNvSdr9V2TH3weCR6vtgHVkuUMPSdZVIm1EAtp9YkN7Q5sOnbCE8dVz3PPxsBFwFXPv6GUnXg4AEDOAFyVmyOqzlWIMzdVgl0YoyOKboyoPMpuxzs8gqv99aN2oAy8uE31e6Hn1a2p//P72s7FgDuIPwrmQWzIpXmcj8LoBbihrKsqHZHSYyNKjYE2+ibx3XSq2vLpgi4CLjqgGs8s1uNvAFwo0Zd1qN2prUo21oVdDpO1yTsSgKv/70rtUJl139/onY9/LSSrf/tj2s9lhHIHKdxSq7OcB3jmyzuCf0IKs2l1HJQc6i1ELAB6GDMUMNypTffUIuGByPgIuCqA27l1s1q5I0j2ka9oGOxOe628iLhYNAFxOlSVcdidViCgJNRT0w2WdMkBYvdnTujhi6dV933bgsWFsS3Mqzgpn70c7Xz4Sfadj0E2IXb8Pe+XhFw+ePvef8mczdDgOaDmscFleJrNYBNF52fPKbgP3zR24ht9Xk+kX03oTG4ZY+tUyPHEsAloHtd2aBjao67rVVAp91XVvMEkwJUHDeYQAA4aqAgtPE6K6M6NPAY6BB+DHgQjO++eztvIvgQJjIAR7//rRRwCLqQ9un/+oMHbrhPRysce/97V03m2afQCNBEpeaCWgm1BiGJIlcULoREsSHYsD5z2rRpEXBRwVUn+6KBfp1o0JDjoPO5reMFOh2nKwG7VN0JsHMlKRB275xWfTeu5eEmQCMEgo0Hd9XTDz8pbet/9xNBRQrQDTwuUKbZwyMp6MkFANWv1ZoLB72YpMvCxUdfjNiFCn4/eEp0k2ADwPW/9EKE2ySHGyjHCVVwUEQ5cvQ1AzloqZo7wtRcQCIiRNGFuq9SUgIVnqTsUtg5XFkLeEkZyuCVi9UBJwBnw8c/VzsefiKaC37D//iNGo/hfQM3AjOnQvOpNJdSA9BJUBPUmhRfK1BsWrnBxfPEUX2v9ES6VnHf1YUT7bsJBdysBfPVyNFXGeQmEHSS+6pVgUPVAfBcsAsA3si5MzXC5bYa+cG3RLi5oAfbRXUowDPkfb03rrHbo6iyRdeeufxUpYkxNQ/UJLUmgc1kRS131CpFAqglYMO6zKWPro0KLiq45igLMY6R1wFwBnJczVmKrig+B/G6gGQEDHa4klPjLg2uI9x4643ZCXE7nMRp/C5TeT1QLlIRKPxz4KY+9fAPDvtEPfXQtifAPa1p3/A9A1cuEsD5XE6EnMv1rAFqklqDeFsB2HTx+fHX1fzVqyLgIuCaAxxISaiFyyAXCDpvfE4CnVBHJ2VeYVIg3HjLIYfrLtil6s4DvLOnVP+7l1X3XUg2oFWPfwFk1n/8c7X94R+CbKgW9xSP+301DPV/CHOx9QGtAtTgN6IXKlzOJQ7CwYYlS3CnDXV14nLzc30i+nBCXVQ44Z69u9XI668kkEvVnAN0pqQEMq52tlWKzzUJuiqwA+j5gCdAb+jCOwRuGSwy4PFtfgCCm7rt4R9S88EuTL3x/cvrPfD0Xgtqxn3HuKXYOuJp+uIhJAvwooMgoy2HmlZr5cEG42rwlZcj3DpAvQFfJhxwq7ZtUSNHAHBor+YV3bGSiYiie1y1m8KeQ4cThE4auoyTi7f0v11R1dG2CHhn3lSNO7dKQk6GDECx8eBOCjcKOr782O9+XNs+Yb+gRHNlNjmo+YDmSBRgf9PfApel2JoGGwtVsPiajrPBGKGewBuv66JzuHg2ntkVARcBV49kXf74Y2rkyOEEcinoBMhZ8bmQRIRD1fEYDKwj3HiLE4m3OOmklsJNWtbAs5MWfdffVd1QEydZ6rq6ocbV3uMf/UxtffgHrw1972vlAScdn9kGStQGXAHMdN94VBr0Le93XOe/k4ZagFqDBzt4wKZrMY8dUSs2PBEBFwFXD+AWDw2okdcAcBxyIW5rHnT61i/vXRFYPMyu8j5VBxMIJxdvJcjRbUUK7/RJNXjxnAw3D1BEGCJs/umbasvDP3jN9/kqr6WPHJKgnm6rCDTo81Cowe8YrNhIWRIktLS9phb290XARcDVA7j5q1YmgEsh12rQOWJ1Uk0dTjIOObpO4eZaZtAbOftWrYBr3Luttjz82GmP/vZHte6v9/o16zHfCewKYAZ9Q/uNL7vcT63WhItTCNTAJdWuqAw2eLoN2OzFiyPgIuDqAdzsRYvUyGuHjB0maq4u0EkJCYf7miszwYnkiNdp4LGSEz5RXZBj23tuXq8VOo/+20/U5ocfizbwD1+tcV+3tAJ1Zp/pefK+4et4AeEtXGyk0IIENckNDQEbhEC0xWfATUS2c7z2OeFJBviX+5FXDyVWN+isOjoDOsl9zSUlXKrOAI9PQGu9AHgwqemkN8tQQ9YNyYZCc8TqmDs7+I9fV08+/Dhv//1RSbgVH9MIZE/5OXF4SeteleaDml2UKyYNUqhB8sCj2AjYoB6zLz4DrqPU64QDDsg9+NILGeQAdhp0Rs3V4boy0MlxOpeqK4Cdz5XV4AsA3qnjavid0wFwK4YNBeSmhx8rbmt+/f1a99MDfy4jwUvaZl0IBFVcSamxbGgKNgI1AJyJr6Ebmqg1UG1YaJ4ktlZufbKjJvh4KaPJ8r1tAbjevbvV8Csvq5FXwYyaawp0Uh2dSUgw2Ol6upyqK4Cd05UFhSdM3NzElqHXuH1LFdqdW0lZSaHSu6XW/uaHOcD1f/PvygHu9i3V7bF+uHuhCsygT1xAcyUKUvfTBbUCtQYxNqbYdJE51F9qe0UtGR2OgOuQ+BtAuC0At2rrZg04gNxEgS4tHi4FuyJ1Fwq8BIp9Vy8XAy4EguY9A9/+itr48KPUnviP39T6/QDjobdPyxlODnUfzFKgCa5nWahJai0AbLoO88gral7Xigi4CLh6Egwoc5etHVXDhw+q4VfADOTqUHTSnRFwBeeFw0zVFcJOjNkB7EKAZ6AnKL3B82drB9AT//kbteHhR9pGfvGPtX9/qfINmijQCQIH0FKogZJmRgpyvbE1CWrgjhK1hlDTheZQg3nksJoxe3YEXARcvYBb0FidAA4gVyvopFq6Ave1FOyMK1sEPK9LaxIXJ4+pkVMn6gfQv3yo1hvA9f39B7V+PyhOMbtJQYbLroynvihgAa7geqYxNeZ+pkoN4mvkopW6oPn4GrqhEtgAbgMv7o9w6yC4tY2LOnvhQjV86CUbcnWADq7K/BYwS9WVh507QYFKw0xWnLhia4pRcfKTtufme6px+6bHAuJ0xI3t++qXNODW/ekXFeHmPpbBc2fzgCtSZtgf+o4CN9CSerVAqBWqNVBuZixopQZqLVFsusAcElmvHVbdO7ZHwEXA1ave0E3VgAPIcdBptzXEdYXsq6OOzgJdgarLubBycgLdI3eSggHPq/Iy93bgwjuq8b4bKn74yZ9b9/k/q6EffcsDTflzzn3B8b1/U428eYL9ry2eB2t9MEMX1OV6upRaTVBLxkySuV/+2LoIuAi48QFc7zO7E7ilkGOKrgropBITC3YkJkPLBaibQ90fvYwlB6wMASaiNv7cOgQdbYlLhorGtMOnTyaAMxDRsAtZ9qi+oZ98W/U8uO0HXMg+6HugPIQde1aP5lBmBGZOhWYBjbmfLqhJsTVQbB61RsGGmfsFPY0IuAi48QHcqs2b1PDLL6rhQ2BGyWk1x0DHXFd31pUoukLQEVXncmFFZedXdxbwxOwshR4uH60GOAqfFiyD0szduI4Aoy2ctzFw71H5Wq2uUcMLB4mnWUBjMbWaoJbALSlRmrVgQQRcBNz4AG7pmpEEcAC5pkAn1dLVBTsSsysCnpCsyCZ1Nun15KdAOP666r90vu0hN/zWSTHD6VVmqHJ9QPNBLc2AovL2xNXg4Q0YstBt4oaiWkvBZrL2Qy8fiHDrMLi1TZIBDmRB92o1fPCAGn4ZzEBOAh2P0TkVXQDoyio7n7oLAZ4XepmLO3TmVNsDLlFjDkWGIMu5m4LL6QOapdJIoiDnfuYTBpILmsEtKUXCkiRoGzt3RMBFwI2PegPAzVq4IAEcQC4YdMx9JXV0OHhzd0ekd0i4VB25yd+K1xm1QFWEFbcDdRei8IhbS5UMhQI8dPH9Gx5LgvzB8bkSLmt3+t4bqttxDH2XzuddTXouepm5mgCyHMx8bidTacFQA+XmUGuvcrCZsqTDB9WKxx+LgIuAGz/AAeSGXnrBhlxV0IWqOhfsXMouBzychKYtAh4mL3Cyi20Si+q9dkU1bt3IzAEbPwh9kCzxGj2OWzfU4OlT5t5OhyLD88LztVq8EJiWRTKsggAAIABJREFUXjD0Ml5IyrifLqjBbX8carCegU3XXR4+qBbGBENHAr4tbtUCuIH17t6ZQC4EdNp9JcmIwIRElpRgLmwQ7Ji6ywEPJmVF6DEXd+DttzK4McBY4JuA13QsESEGrQUwXGcgQ/jz/sH6NGytzCdxPXMxNT/U8mAzd8rAxY+aSWiBB4HjMLbjK2Ra2b9tBbhVmzZowIGS02pOAp1WdSRG54zTMfdVUHW1wy4EeDDBcbKLbQKI4eNH2xJwve9eZkBznE8OZAB+ps58bqcItLJQk9Xa8GH7wghjrZWTLu6rdQBtK8AtHRlWQy/uT8xALoUdxuZoS5MRpUGXFQ/b8TqfsmNxO8uVBXUnKDwReoLSQyAQ6PW8d1U1bl13GHFfa1dxrn1eVwNn37IBjceda0NgVqTQCNAgrgYq2zL4rcJcUK3ajFqzypBeflE1nn4qAq4D429wIWkrwC1YvSoDnAt0kqrjoNOws6/SyR0SLlVXAnYwwTCIrcsPYBIS05BD2DmA54SeDb6Bd86oxs3rsjnB54aTG5bCZxz7HYZathRmAsREVYZFt7RfSJ/R/kv7lsMM10tCjam1BG62B7Di8Ucj4CLgxl9WQqHl0IHnE0PAYcsVnQg6VmLiVXVVYCeoOwt4gsITVZ4HfAR+QyePyXBzwMcJw5re33PtSuZmwnF6LQRmRQoNoJYAbcTUq6HaTloWT0tja8LFDdSbdCE8eCAmGDoUbm2n4OCAUsC5QPdiEp9LXVcJdFKczgs7YaKwW8PoxEonneUuocKgCs8BPFQsObWHUMjg0fPeu20DuYG3zzCo4fGyFs8v17K+EfvPBzRXTA1+PwfU4M6YHNhMKZIJd8DDHmJcbPwFzET0cVu5qNABPTt3qKEXngsA3X4rIaGTEgcDykxwsEvxGJgk2qoCz6HwciqvAHxE9fWfO6sa8IQRpzlc2KZVG+wTvhvb62roxNEkzpgDl+RuhsCsSKEZoAllHUkmtAzUXsyXIB08oEMiEzHx4j5bA9S2A9zKDesTwAHkJNAdMEkIdF2hDXFftaoTXFit7BwTxQU7R0YWVR64U5nK80BPBJ8Nv8GTb3jg5gNfva/1XLtqxxpprIwui6oM1W3WL9hX+dZRzlHkfopKDdSbrdZ0ETmMBTNmGvERSR2tXtsOcEuHh9TQfgM3hFwo6Jj7qlVdGRfW5caC2vOpuxR4+WQFTuBS0KOQeO2Qaly/NuGQAyWpkyv02JzLGcjkLCfNfFYFGlyUJPezGGr0grjisZhg6GQ12XaAm7+ySw3u36eGtAmge8EkITBGBy1Vc7gcqupc8Tof7EoBzw09gF8efAgHVD2HVN+Fc6px470JtaETx8QSjVSpikkACrIidxPDAuZiIoUQYBuGGHKtX6lRqA3BhdCMk3gHQ2tcxYmCaNsBbua8eWrw+X0achno9tluq1Z2Augk97WMC+tzY5sFHrpYafLCDz5UftAOvnl8QuHWeO9dDWJ6TP5lo8qcsTOEmS85gGEDl0qTY2raBQXVzi5wGnB48SPt7EUxwTBR8GnFftsOcHDSA88+owaff1YGXZD76lB1ZVzYItgVAS9E5SH0LBcX4UDUz2uHJxRwfeffTv8MKAEbHqNp6Xl4lxFavtYDNOhz+F0kKwG1IbgQgvJ/4bmOjj+1AiDtvo+2BFz31s0GcAA5A7qcqgt0XwNVXRavEzKxOKH4o5y4m8Qf1ulys4rieQIkesFNhVjcjSIr48oWfdc1vc+Bk2/Y928Kx2fd34nn5zr/dLt5wCnvR7qOfS+1kkqDbUShWcs0rHHgedV4alsEXAfXwAF82xJwy9etVYPP7VWDzyHgaCu4r6GqzgU7QdllwHMoBphwRcCDiRoKPZz0CAfdZq7cAPzjFgBuAkyrNgtqJOmCx13YBsAM+ksCGd3WJNQS5ZaotxXxPxg6HvBtCbhFPQ0DOICcAV0OdhnoslhdqKqD+J1QboJXfmESQUxHG51s0jJVH77lkuAbAjd1AuDWe/4d+xHydYFM943n4oF9K/wWacIAfy/eMqVGoaZLj0x2PiYYOjvB0LYKbs6SxWpw3zNqcN/exDTkCOy024qqbl94rE7KwOrJUA52qbpzlaDg5MTWBzrpNQ0/9t8Uh15SvfAo8xZDbuDN4wxwqEoLYmW58wqAGfRXFaAB4CSowTZaaoTLoPj371MxwRABNyESdvqMGQZwALlQ0JlY3f5M2blLTUDpSVlYs40rArrumYCJwvPE8BB42Ia4uAQU/dpNfVc1rrfOhqD8gxxD8XIgyAzM/EDzxdMcUIPfFUFGWwM1GBOg+CFT3+4B8nh8zQO4LV1U+GF7d2xXg5BNBdOQ84Au577WCDufKwvg8wCvtNJD8GHLAJi4qa2DGyQ28kArATA8jxCYQT/SC4m07FRpgVAjcGts3xoB1+EJhrZ1UeHAVq5/XA08u0dbHnRlYFfGhcUYnkfdFQEvAHrNgK8H3FS4Ab8F1n/yeHHQn0IM7gV2lWvwCwEptnWCDfq6RqglGfkktLF83ZoIuAi45iViVZm9dHBADezdk5gBna6PsxSdC3SeDCwpN7GSE1ImVrs4PtjBa574naVC7Keg+JQfQiJtCUT6T51sCdwAoNo9JftOjycUYgg1qx8c/eWDmY6lOVQa/Ebc/SRKjUJNL4Paf+5ZBc8erDo24+cmjgtl+75tXdT5XSvUwN7dxjjo9gjuqwt2yYDODXQAnQg7uE0MlZzUFgGvDPTMZEcQBLSDrx5WDXjS7zhbz4Vzhe63BekQRUZB1zTQkkRBGlPzQQ2SUhpsmKjaq2bNmxcBFxXcxJEaBuDAM7sT84BOVnU1w84LvIKEheViOdQLnfjO5UwB9ly6MO6AA/c0BVhZeNFzKAIZ9o8rOYCJAq9Kg4sVZtVJy6CmS4727VX9e3ZGuE0BuIHaa1sFBwfXv3unGnhmlwA6UHbNqDpXbR1OjgJ1FwI8X5YWJ3XaQqwpHH59kE29dnVcbfDwweKgP4IsFGJ4vkEwcyg0kwHV6ptDzbifSe1kptbSciOTrFq1YX0EXATcxKk39LNXP7lRDewBwKEZRQfKjqs6AF4aqyvjwuJEcLmyAD0f8IxLWwg9o/RKgY+7wwkIB145NK5w67l4LgGuBpcn0I/AcrUaZJ7YmaXOKgAtdT3ht8Pf0bRYQ5lm4EHVJ1n5JQP9EXARcBMPuOVrRtTAnp0J5CzQhau61IV1JSdgIvDJgUqAK4R0PQ+8LGFBHvUUBD2M8wEIONDc6z2XL6gG/Dn0OFj/iTfc2UsKsxRgARBzwCwXQ/MpNAto5aAGmXi8AM5dtjQCLgJu4gG3qNGt3VSImVigs2AnqTrZhXXDzhWzQ/j51B1ReCxpkYdeGbWH4ONtAsK+N0+oxrtXEqsLcub7Bg8dTGCLUCrb6niZnd0UQVYEs2CgwR0vRqFha2ooEWq6NWGNaTNmRMBFwE084OYsXqz6dz+dQG73Thl2qftKVF2ACwsDXq6vI7AT1R1AzwAP2lTV8WWj8gTo6Ur69KGeqPgI/AKU38ArL2eAQ9DV0Gr3tAhoFsAy1xIg5gRZCMyKgAZK2+N6JiotU2oUaknMdrdqbN0c4TZF4Nb2SYZp06ap/l0AODQDOYCdV9WVh12QumsKeAjAYvC5AWjDsHH5Yu2Q6z9+zKorQ2jRFo9PbDFembZ43kJLLxS5MAGPpflUmh9qabz2md1q+drRCLgIuIlXb2miYcP6BHIAukqwIy6speyIG8sSFBbscrG7EIXHXFuv0uMTnwDQo/4ALr0n31Dd716u1QZefjF9mnIOYCm06DHy43esNwszkyAQVRoklzCrrluShMJSI93uUgtjge+UAnxbl4kA5OCOhv6dO1T/LjADOQ/oqik7H+wgO2vuicUW4zxWS9wnlxpJtxMXtxT8bHgMHHpJdV+9XJs1Lp73uNz2vkXX3IKYkARIz5/0lcvlLAU0AJwbamkWfs8uNWv+/Ck1wVEoTNW27QE3b9myBHAAuRR04w27IuAx6Fmgo8FuNpHpBPcuMwAiOIR4X+PKxdoA1/fGURlwuP9ci0rV06YAw76g/UOW8eKhs53M5cwpNB/QQLFjWdGuLAO/Z5fq27kjwm0KuacA9bYH3IzZs1Tf00+p/p1gBnLYclVXl7LLubIlgSe6tWQy5ya9mfxe6MkQ6TtxTHVfvdQk5ODzl9TASy8IJTPyfq3SGvF86Pmy5SKYFQEN1BpzPVOoQYbdsiReC0Xj8ACHqapkpup5tz3g4Ifp3rRBQw5A16dBx2CnQcdUXVnYWaUnLElRBLxcDI8WHTP3thB+CANUPI7WwBBiZgngEkhVXW5cOm/DTYQWPRY8Tk9LQOaMnYkwYwotBzS3SkvglkENwIa2ZKAvAi4quPZJMOBVZ9nwkOp7ensGOQCdV9UFws6VjUUFQF0dSzGQeA+N/ViBbhP4hgksGrhhVeFnQwXc1MaVS01Z39Ej+Voyp+tt9i8cP5xTYo7zlvrI6kOuznBddjstoO3JYIZQSzPwu55WscC3/eY2zvHxaieFgluwskv17die2TjCTkxShABPVHnMtaWTW4Qeh4IDggwsEDtrFnADB/ZndYHs+7FesBBe9JzouabLjgsDv3hYFxbucsJ6UvgNv1UGMlzGkiKSkDLJqekzZ0YFFxVc+1F+1vx5qm/HtgxwCDsBdNWVHSsoNuouHHiCW4sTlyuUdN2ovBQAbJ0Cw7Pc/+ILqhuSDRWtcfa0Q2Vy4Jp11/Gm20NBxlxNBBteUNLWBzQAm4GaAZmVbYfwxc4dqrF5U4TbFIMbqMJJoeDgQGGA9j21LbHxgp0rbodxHFAMaYExuUc2nYjEjcLJqlt0s4Q2hZ0DCik0GPzY9u7LF1VV6z3yKqsj8+3LdZxmO0JdbIX+oX2XLpsYmqjQCNAAbDmoQXiCJaN27lDLR0ci4CLg2k+9oW8OAzQFHIIOWlRztC2j7FylJzhxUB3oFt0g0oZADyauBTy6LkCPw6EQgrtV79HXKgOuf/8+u47MtT9+XOI6PTeynMKLu5wEZpWABpCToZZk3pN4bSzwbd+5jXN8PNpJo+AWda9Wvdu3JvbU1jzsJFUH0PPCjmVjrfITIVFhKTzBpWVKr1Dt4aR3wg8BUQzB/heeqwS4ntOnWMmFa194LI4Wz8XZEjfTCbIidYaKzQU0UG5Jpl1n3E0yCpZjgW8EXFtL+DmLF2WAQ9BBWwPsnHG7EOCFQo/E9GzwOVxdFyg8MGyceUt1X75QyvpePeRRl1xtFa0ziHlBxmAmupthQNNQIzDL4JYkpnriDfZtPbfHQ7nhd04aBQf/ldqzZbPq3bYlMQo5syy7sA431qPuxFo7hJ3l0jpUXg56HrWHqo8BMA/BYhD2vvaK6r50oZT179vLCmMliCXgguwlHFfO6DmIyyYJgO4+uv9ia9SZEEdLCr2Tou8MYokLmq2TbLsJW6xYE+NvOOGnWjtpAAc/TNe6tRngUtBtEZWdCDsds3MAT7uy+Vo7PXGk4mIKvFDo4YTGiW61JK4nQsLxOgFO33N7S8Gt8eaJCrByHId1Lr6sJqoyEjtzwixxOd0KDeCWB1oWl02SUgtWrpyyCmaqAY2f76QC3JK+HtW7dXNiCDjabpdhJ7qxPtil6s4BPNcdFRx6ZcHnBSBVQS7I7FSNUyeDIdd76KBQR0a/m+6TLeOxBrVFqgyznkadQRxNdDkN0JxQM1l2moR6apuaOXduBNwUzKAC7CYV4OYuWaIgnpJCDpcp5HC5LOyaBZ4FPUfyggIQM39WS9VNtWWAVvfF85ldOq+60ej2i+dV/55dQplFlf0SgHnVGIKMKDMvzIoUGqg3GWqg4CEpBbf58at6XJ86CYdJBbhpM6ar7o0bVM+WJzXogmEH0BNidnobu9pbrq0rM2tiO0mG1qPyUIWkLm4A+CgEcwqQgUTDkQHpmd0Z3BjQKPh6jh9zwE3aB9nGj69wPUSVoWIzWW/sX7H1AO0pk2Unv/WyocEIuCmq3iadgoMDXjY8mAAOIIe2dXO4svPBbrtQfkIBWAS8ENcWoYetBb8KABQAA/DqvnjOa70H9uefziJ8V+4JLtZ7Eni5SjOquZk0puaGmVZoAtCyC1mSjJq/YnkEXATc5JGsC7pWqJ7Nm1TPZgI4BF0VZdcM8IrcWqpA0iRGgOJD+PE2B8MMMAAZhFHvSwdU94VzXsP3Jp/j35OsQzZZGz+O4PUQRYZAg+RPM0Dbmk9AbduiZs6ZEwEXATd5ADdz7hwDOIAcWknYQewOY3W8dcXu0O2R6u6oysPlELXnBGATEDTw8QGuceRVTxAf3cWi1sDLGfBHcEmtH2QYJsjUWN711K/x346ub92sVj3xWITbFIbbpHRR4aC71o6qnicRbrx1wG5L4saWitvhhEG4udpQ6KWKz1GqQoEXsmypQgKcp7erBty6deEd0Xqff9bc4WF/Jo0phuy78D3FiiwFmUkINAs0nnxa0h+f/wbzZSrbpEoy4A8Ft201ntyorefJjRVg50lS+NRdCjxP0oJCsAz4LOVn4FAIEUkdJdt6n9+nus+/k7ezp+X7d4P3hccWpsIQYthCyU4hyKAPsa9dLWbQSQsXL21wMdvypILH3eOYie3UBN2kBNychQtVY9MG1diUQC4MdpuypASN2eGyK1ERAjyYhEWuLQUfLFeBH0KwqNXu8TbV/fbpHOB6Dh80j56qBigElavtBTUWCjHsExfE6HYCMlRqKdDgt8PfkbQzZs+OgIsKbnKSfdVjjxrIAehcsKuo7mCS+IAXCr0q4MNJbyDYDAh7Dr+cA1wv/PlKESCF11NwlYUXPR8KLN+yADOAGv4miUpzhSKe1LHZlevWRrhNcbiBap+UCg4OfElfr2psRLjx1lZ2oPD8rizE8TwThgAPJhcqCLH1TVzpNQqAmpd79uxSq8+9nVr3iTfC3MPKx2HuE5bO07XN058p0IzLKak0vQ1+uzThlMRkl/T2RMBFwE1ewM1bulQ1Nq4nxiGH6y7Y+dRdAPDKQK+M4nOBoKwLbCAFUEPI9RzYXwFwxv12HVfo9hCQaVdTdjctuDGYWXCD5NOTG9W8pUsi4CLgJi/gZsyapbo3PKG6N1DI4TLCjbcbc3E7S905M7MmU0viO9aEs7bbrpSo8qTJHgqKku8DqK0+d1atfues0m5myc8XBvvx+6RzYttSRYbuptVvDgUtqDMJaBiHxRbGR0wsTM7wU52/26R1UaETlg8NGsgloAPYdVuqDoC3oZQrmwGvSOEZ6BW5tnQS48QmbTAAGSyCwfPUNg23xmuvFGcmU1ht8bvh/FjIeh5iAYoM+6gIZqDcjEJDkFktJJ02bVRda0Yj3KJ602NgUgNuQVeX6l4PcOO2Xiu7POwM8HRSgqs7WM+7sziB0hhekcrT7pNDjeBEdra2+uOwqApDgFvP3j31QYsAGp7R51azjn4IARmBGfQ9/g5Wa4CWJJmy3xPKiOpUAfG7Jq8SnNSAmzVvnupe/7ixJxywy9SdHbMrcmcN8GqDXgXF5wShBA4AjTEKoK2bVWPvHjsDia/j+6tAqujYNMTywX/LvaSxNKPMnDADyGmgZSCzwIZKfeN6NXvhggi4qOAmv4LTburwoOp+AiFHWxfwfOquSOGFQs+4t0FqD8FHWwCDBLE22VYWXg6QFcMMoFYMNHrhiuUhk1dtjYdSntQKDjoEbr5f/cRj2jToSsEuU3eyO1sUw8PJJycvLHcqLVVpFn4UhG24rJVYkslM3HqHe4lup8PNzIGNKDQKNFjWsVeIv25Yrxb3NKJ6i+otHQOTHnAz58xRqx9PAIegS9rHHcoOVJ5L3YUALxR6RO153FwKQQRC1mJQfYJBlkILjwcgnRk9B+dyKMhAsflgxoDG469zlyxOB/d4KIL4nZNLIU56wMGAWzbQr1Y//mgCOoCdADy3uisCXknoweR0uVW57RhXKlA5qHY8LQVOlWUnmDz7tD6TAszjVvLzT0EGUMOYaNaCqtZm1BmHWbpuLlhwdwv8OVGE0OSC0Hj+Xh0BuPnLl6nVjwHgqBnQCbBbDW4sWpqkCInfAewI8ExZitu9JWqvFPg4JAkIKUhC4VP2fXQf1jI/roD1Aogh2GyQgbuJfc1aVN+6pb/Z42ppfHpIhDtzzzsCcDNmz1KrHlunVmt7VICdX90FAw8mlWvilQYfKhXqkgUAg6ugiVy34IXngeclt3mQVYNZmj03Fyr4DefHp4dEwHUi4EDiLu3tUaseXadBl4NdTt01Czzi1qKiCAVfkOqT4ZDFphAmAS0HoAgl3/e4jkXergGWi5N5IIb9hv0oKDMOM1Dfdrw1icHGp4dE15S7ux2h4OCk4N7DVY+uTSAHoCOwS4BnlB3ArjTwYAIVubXoLpkEBk5YnMCFbZIFpBnBFBZCfApdu1a09Dis40tjYwEAw/PHfklb7DfWkv6GvpeApmOtJua6bHAgqhemXvhkn4rrHQO46TNnqpVrRw3kAHQMdgR4lisbAjwxjsegBxNSjOfR7Qx+MMlx4ldqBSha0Kn6ehPHlYKLnivtA2HZgpmUESfxVAM0O976qC4XmooTOJ6zX7V2DODgh17c6Far1q21TYOuDuAxt9YJPQF8QfCDiU+hICxXgmATsML9eY9LAJYEegKxxMV0qDKoaUwhhss0eWSW8cKk23UK7mqJk90/2adi/3QU4OYuXqRWrl2jVq5bo1alVh54YgxPdGsF6HnB54BfMABDYCKA0QmokO8LfI8IMA/ERJAB0IpgBiGGLNYKv9Xy4fjfp1MRXiHn3FGAgxqoFcNDCeQAdGgp7AB8zQAPMrVFsTycoKg+WGvuuhBjSulrAIbE0nIWBpB0u6SWqm5z7YNsx+PyHz9xM3NqzAExABvvW6POAGKpYXyVtAtXrYzqLcbfxDHQUYADoi9YsVytXDOq43EQk0shFwI7gJ/PpSVxPJxwYjzPqfYQfg7lhzBIQUdA0Y7b8HjFlp4rWxZBlldmuo8JyHTiyPp9kovV7PnzxcEdcoWP7+lst7bjAAcPOuwaGU4gB6BD07ArAl6RwhMSFzgBqcrgNXnShJZcMXEbU4AiTFr5HgYr8ZhdaiyBGHcxZZBBJpxdcLj6XrdWLYvFvRHuHvXacYDTKq5rhVo5OqJWrkEjoLPUnQC8ohheTuXhJDSlKQg8bBn4YDInqk9wd5sCYSB4XEAK2S4dX25bdn6ocq0W+yXXYj+aVoBZFldN4qygzucvWxonuGeCT3WF2pGAmzl7tlZxXaMjCi2DHUCvJPBCoOcEH0xYB/xguwBA3JaBEKHhU0bj+Rru33+83vPUfcAgBgpNBBlszxJFkDTKhRrWrlFda0ZUfDR5Z7uYzQK6IwEHnbJwZZeB3HAKOYQdtF7ghai8HPQE95ZOXu5uWeseAEpw9EAR4VhLK+3bu00AGJ4n7QtrOQMZQM0FsySeSmKra0bVotXxyb3NAqDTP9+xgIPHKEEszrJRgJ0DeBb0mMJDxZfG8RyurZjIwAnsUyvmNYRBUFsSil4w8e/ygEo6NgtYrvPEfjAQc6iyRKkRkEGfY/9b7YiaE5/cG93zAve8YwEHV6ZFK1eqrpEhYwx2AD8P8IJUXk7pFYDPqD67Ti+b+G53zQUNYbsEIN+2IDgJ+7E+R88hWXYrMepuhoAMAWdUtwk7LBvoi5O7YHJ3ujoLOb+OBtysuXN1XRzUxoF1gfmAVxf0UGlYig8nM53gnmV010gsisal3MtFMKKv58Hk/t4Q5SWdD543abF/xJaED0gMlYYXYBkekRUywON7pnaMrqMBB4N70aqVasXwoLEEdNWAJ7u2WulZ7i1OUFQenlYEIIBAAkW7bSPA4uchgov3A/ZT0nKA2etGbZOQw8w5syPgooIrHAMdD7jZ8+apFUODtjmAF6zyLKXnBl9T8OOQ4BBp9To/nsJ1G2A6qeNRZAnQSNiAwMyKo44Mq8XxbwELJ3ZUroly7XjAwQ8NGdUVQwM25ETo2QovBV6Ia4sTMo3r+cGHCsWu1xOgUAgSrozGe106xhFdd4jnVNyGgSwBmwkrmDAD/CbxzoWp7XaWgfeUANysuXPU8sGB1FYMAuxCgAeubR56KfjSeB5MQiGJwbdZ8AsDoAsWGoyia+wAUFr0XPA6fGeh0srqC/PHR+CF58v7QVzPQAaxUle/R/UW4RYBJ8Qm4B7V5YP9KeRywKsBein4LMUXCD+c9AgFsfWBZbxeE4CFx4bHHNwaiMGFwSR9XCBLtrPQwtCgmrMg/qlzmQk+1d87JRQc/MjwOOvl/X1q+UB/Zg7gAfwylVeg9MDV9cT06ATGSZ1lcnHCB6i/YIhM1HfhuZjWAMynxrK+MX3IwwZsfXF3d4w9CRfvqQ4x3/lPGcBBJ8xfulQtH2CQo8CD5SLohSg9OjED4ZdN9kzdaCBabjCDiH6tbqBJ+8hDKwxc6GqSiwDtG+eyCSGYCw2q7TkLF0bARcCVGgNTCnDwWHP4cxp4AgWYVnRc1XHghUKvLPhwcqcARAggFCZLi8cdpsLsjLYMMgQabZc0onrzKZX4mhybnFKAg0Ewb/Fitay/N4Ucws4GXoHKK4AeTkzt5pZ1dxF8vjYHRQaZOl737b/UazbEoE+wf+SWhBDIxWbuoqjeIsRkiPn6ZcoBbtr06WpJ92q1rK/XNqPqKPBKQw8npMfNpZPaAmCqAA0QSkEkH4y3lVLdr+MxloUXhZsMMitGavoT1Nu0adNKuSa+QR9fKw+KydpnUw5w8ENBLCcHuBzwZJWHAMzc2wC1h+CDVsNPzuZS+LmWc1BEhSi1uhTGDaOQ73IdR/H2cIBlUMvCBtjP0M5dtCjCLcbeKo2BKQm4R6ZN07dwQTwObRnE5jjkpHWH0sMJmYJPx/ZKwo+C0IJhdSAWg4iqKt8ygTM/zlLrGcSgr7DfXK2lGpSkAAAMpklEQVRWb9OnVxrck1V1xOOuT2FOTcA98oiuhl/akwEOQYetBl4o9ACEAZMV3lMrAEuBpYqiqvIZ+xxD+8V1cYF/SosTvr4JP9X6csoCDn7ohV0r1NKehm1E1SHsaBus9Kj6C4QfhYEFQgSjLnEBVdikMgwCo9kP7pu19FjDllnMk/aPtNzbo0C9wT+lTbVJGc+3PqBPacDNmjdXLW0wwHHgwXoB9OD10oqPT2pHZjcMHsWu3vh+T0l40XM3fSf1MWS842Svb7JPxb6c0oCDH3zB8mVaKYBaQAuCXiD4aoEfBYJvWUMy1F2G9xnzfWezrxH4SxDLbYOwQU8jUW8zZ0bAxeRCU2NgygMOHm2+pDuDG0KOt8HQ0wrQHdvLTWijDlMFqIHQhCJqFkihny8LLq6CJaVMts1bEtXbVFRcdZ/zlAccdOj8JUt0bRzUx2VWDD2AYDnwoTtcHoAuMPLtNiiJ60yAhO/hn611ncAqF+d0vLakkSg36NcZs6J6q3uyT8Xvi4CDG/FnzVKLV6/WlgGOwg6Xu4PUHqq/avBDCNJ2/IAYBDXtNiauYyisXO+jEMN+4u28JUuackum4kSO5yzHKiPgTIwDyhEWr17FLAR6AL9y4MsmdKOiAqTwa5NlSNYQBZadY4AS1v2HF5HVCv7XNk5YecLGfinXLxFwBnBwIz78C9fiVRxy0vpq/dhsv9rLJmx1ALrgYMBooOJSS6W3p5DKXMVSoCKJGutzeAGwQgC0f7Ll+E/15SZwBJ6/vyLgSJYK/mdz8SqAHLVVgdADECaKD546Gw4/fK9RgQEJDwseLqi0YnsKLjh2PI+wNu0r3WfZRQT+CS1OWv+kjf0T3j8RcARw06dPVwtXrNBKDtQc/CMXmA08XC8DPpzAGQCrQTAMHqlitABEAJpuD/2+cu+Dc3MBLB8GwL5ZpUt24uQNn7yxr4r7KgKOAA4GDPyhyaKVXYKtTMBnoOcGHwCwCvyyiW7DIXGHNTRKqqSyqkp6P+43d0xMefnAZb2GfaNbvFgk7ez586J6Y+MxQqwYYr4+ioBjAwoey7Ng2TK1qKsrMRF2FIB58PnhRwCIkz2X3KCwm0TLeD5pawOMKmFUx7pduVItXLFcwaOsfIM1vtbcZJ+K/RcBxwAHgwDiQHCfKtqirhUqMQM9gF8h+OA9Bn7E3cWJTSd78bJRhCk4yHrdcJT2kW5zA4ufA55n2tK+EPou/plMhNd4ADgCTgAcdDQU/0I8LjUCPC/4guHHAIgAIC5wCgdvLDAcOhxCoev8ONJ1PGarDYU/uVh0rYg31TvG4XhM+qn0nRFwjoEFt3CB25Q3Aj0AoBd8gvIrBUAfLIg6tABT13bfvgNfQzc/bbE/7H6bG/9MJrrmjnnYLIwj4DwdC0+SXbB8uVpITYQegrAYfgjEzO3FSU8VDVsWXLowFzkQRKHfn4KKHV/qwuO52ADDc05bqoxXrNB3kjQ7kOPno4srjYEIOA/gZs6epUsX4IkjeSsDPgcAHQowBQFTh3koZkCRX+MggvWiz+Rfdx1PbjsDV+reey4K8XHkEUwSmOraFgHnARx0MhT/QlY1ZyL0EIQMfqAAPZM8/xpTgk5wFCglBsgckKTXffuyXit5TlQFL1+ulTFcNOJtWRFwdcFM+p4IuALAzZg5Uy1YttRjDH5e8GUAzLm+CIBSICwJmfH4bjxu0sK55RUvnnvWxgdaRrhJUKpzWwRcAeCgs6H4d/7SJWr+0qU5KwU/VIJBEMxAkMAiUT1WPJBAZTy2J6DK1FYItKz34Pnm2uSCMWvunBhcDxh/dU74qfZdEXABAwz+FwDKRhLISW0efABDP/zwdaYAczDgoJvAdenYctvwvNwt9A080DL+12lUcOMN3Ai4AMDBjwD/3zB/yeIEdAA7blrhSfCTlR+qwTAIumARAMccgIo+49pX2HY8L7nN+gf6c7wHd/z+CNAIuEDAwW1E8xYtUhA3AvVBLQGfB35e9ZdNehkKsjrE9zYHyDy08HvLtfQcHMvsghD/LSvCpxUXoAi4QMBpFTdnjpq3GCBnQAew4+aEXwEAEQBeJeiAx0R+Bo/b2cJ5J4YXhdnz4k31rZjccR+PqAi4EoCDmNHchQsSJafVHMKOtwL4KAgZBGHiIwTsVnCFnSBp5Xvt40Vw5Vp6zmQZHi4aJ19UcK0YAxFwJQAHPwjUbc1dtJDYIgXFqtp95W2q9jgAPQqQgCBVhwIQczBpxXukY3Nuk855kZozf36EW8kx1woQdOo+IuAqDDaYpHD/pGUW9BCACfycAPSqQBkQKfScYClQj6U/5zoOYTsHvFmH80eDP/jp1MkUz6v9VGkEXAXAwSQFV9U2BrwgAOZB6IWhAyBZXFCAjldFsve7vl/YjsCyWzwfoV24UMEjkWJpSPtBoJPBHAFXAXAwIGbPm6snLExaajb0KAQLAIhAFJWgAAzxfZlSssHj2x763cL78JiD2gVq5pz4b1mdDJN2PLcIuIqAg1u45iyYL5gNPAo/XHZDEIEYCMMgsIznd+Hx5lu4hxfPF9vpM+ITe9sRAp18TBFwFQEHgwJuNYJ4nNMqAhCBQNtiKOYhU9dnJFjRY3MvZxeAeFtWdE0nAqQRcE0ADopVoaZL2/x5Cv40JTMP+DgURRBmcHADJK+Sxve99JiEZX5eZB0U70QM8LjPqQ3WCLgmAAeTB8pGUsgh7KTWgh+CcL6+kd+pAAkggt5TCEoBSvCZsvtxvB8eSpABHs9xnv6PiwiaqQ2aifr9I+CaBByoOPiTmtlo8+bqBAQkIRIzCk+CnmubCMMMGBlEEkAmYKkGS/pZF6Cy/bFjcB0/2x5LQyLcIuCaBM1EdSDsd+asWToeB6DzmRuCTcCQwSRITdb+GTx+0iLw586Nfwc4icf2RM6rOvYdFVwNgw9uxJ81Z07e5s4x4MPWD0AKxxSGBBSZKiQgSZXiOG6jx1AAcXoOsAzwr2Ogxu+IKrDKGIiAqwFw0PEQRIc6r8QE2EkAxG05EJYHIgfL+K7j8ZEWz4W1sTQkgqkKmOr6TARcTYCbNn2aTjhA0kG0FH4VIcjAISpG/h4XOPn7al5PQT87qre6Jmr8nmoXigi4mgAHAxASDuCSwb9xJeaAnQuCdHsOiAhGaEsqxJLvh+9PjO6TLdNjdSzHZ75Vm5QRZvX1WwRcjYCD+ywhYyiZBh/ADy2FYA0wdABGVJLj9l48D9POmhXvO61xbEXoVYNeBFzNgxBUC8TjUps1U83QJoMvCIYIRWxzcGRwqet13J+jlY4dt0X1Vm1CRpDV228RcDUD7pFp0xQ80DEFXOhyCsLyQESotLbF45TPNT41pN6JGsFXrT8j4OoG3COP6LovUDA5mzlDTdc2sxoEQ2E5we+L6q3aZIwQq7/fIuDGAXAwUKdPn54HnAS9om0pFAGOCRixLa0SA8GH35+1CGYB2sLxR/VW/0SN8KvWpxFw4wQ4mORQAIymgQfQozYDIFgTCAXQ5BTkuL8nOb84GatNxthv9fdbBNw4AQ4Gq4YcAx0Cr6i1QEihSJdTQCIosQ1TWglc8TOmpd/vWXYe/7Rp8c6FcRxTEYLlIBgBN86DMYUcgC7EptvKzwkSog4n7j35c4oTsNwEjP01vv0VATfOgMsNYFA4xIKgFwLGNniPPq9W92fcX1TMnjEQAefpnBycJvK9BIoUkHy5DDD5Z73rE3nucd8RYhXHQARcxY5rK/jFc4gAiGNAHAMRcHFgiAMjAnx8Y0Oxf1vTvxFwEXARcHEMdOwYiICLg7tjB3dUSa1RSe3czxFwEXARcHEMdOwYiICLg7tjB3c7K4t4bK1RlxFwEXARcHEMdOwYiICLg7tjB3dUSa1RSe3czxFwEXARcHEMdOwYiICLg7tjB3c7K4t4bK1RlxFwEXARcHEMdOwYiICLg7tjB3dUSa1RSe3czxFwEXARcHEMdOwYiICLg7tjB3c7K4t4bK1RlxFwEXARcHEMdOwYiICLg7tjB3dUSa1RSe3czxFwEXARcHEMdOwYiICLg7tjB3c7K4t4bK1RlxFwEXARcHEMdOwYiICLg7tjB3dUSa1RSe3czxFwEXARcHEMdOwYiICLg7tjB3c7K4t4bK1RlxFwEXARcHEMdOwYiICLg7tjB3dUSa1RSe3czxFwEXARcHEMdOwYiICLg7tjB3c7K4t4bK1RlxFwEXARcHEMdOwYiICLg7tjB3dUSa1RSe3czxFwEXARcHEMdOwYiICLg7tjB3c7K4t4bK1RlxFwEXARcHEMdOwYiICLg7tjB3dUSa1RSe3czxFwEXARcHEMdOwY+P9zRkEw00wygQAAAABJRU5ErkJggg==;sketch=1;" parent="1" vertex="1">
                    <mxGeometry x="431.19" y="879.9999999999999" width="82" height="136.14" as="geometry"/>
                </mxCell>
                <mxCell id="126" value="Enemy&lt;br&gt;Ship" style="shape=switch;whiteSpace=wrap;html=1;fillColor=#FFB366;" parent="1" vertex="1">
                    <mxGeometry x="120" y="340" width="90" height="90" as="geometry"/>
                </mxCell>
                <mxCell id="129" value="" style="ellipse;whiteSpace=wrap;html=1;aspect=fixed;fillColor=none;dashed=1;dashPattern=1 4;strokeWidth=10;" parent="1" vertex="1">
                    <mxGeometry x="620" y="520" width="220" height="220" as="geometry"/>
                </mxCell>
                <mxCell id="130" value="" style="endArrow=classic;html=1;entryX=0;entryY=0.5;entryDx=0;entryDy=0;strokeWidth=5;" parent="1" source="110" target="129" edge="1">
                    <mxGeometry width="50" height="50" relative="1" as="geometry">
                        <mxPoint x="590" y="700" as="sourcePoint"/>
                        <mxPoint x="640" y="650" as="targetPoint"/>
                    </mxGeometry>
                </mxCell>
                <mxCell id="132" style="edgeStyle=none;html=1;exitX=1;exitY=0.5;exitDx=0;exitDy=0;strokeWidth=5;" parent="1" source="131" target="129" edge="1">
                    <mxGeometry relative="1" as="geometry"/>
                </mxCell>
                <mxCell id="133" style="edgeStyle=none;html=1;exitX=0;exitY=0.5;exitDx=0;exitDy=0;strokeWidth=5;" parent="1" source="131" target="129" edge="1">
                    <mxGeometry relative="1" as="geometry"/>
                </mxCell>
                <mxCell id="134" style="edgeStyle=none;html=1;exitX=0.5;exitY=0;exitDx=0;exitDy=0;strokeWidth=5;" parent="1" source="131" target="129" edge="1">
                    <mxGeometry relative="1" as="geometry"/>
                </mxCell>
                <mxCell id="131" value="" style="ellipse;whiteSpace=wrap;html=1;aspect=fixed;strokeWidth=10;fillColor=none;" parent="1" vertex="1">
                    <mxGeometry x="730" y="635" width="10" height="10" as="geometry"/>
                </mxCell>
                <mxCell id="135" value="" style="endArrow=classic;html=1;strokeWidth=5;entryX=0;entryY=0.364;entryDx=0;entryDy=0;entryPerimeter=0;" parent="1" target="129" edge="1">
                    <mxGeometry width="50" height="50" relative="1" as="geometry">
                        <mxPoint x="730" y="635" as="sourcePoint"/>
                        <mxPoint x="780" y="585" as="targetPoint"/>
                    </mxGeometry>
                </mxCell>
                <mxCell id="136" value="" style="endArrow=classic;html=1;strokeWidth=5;exitX=1;exitY=0;exitDx=0;exitDy=0;entryX=0.927;entryY=0.204;entryDx=0;entryDy=0;entryPerimeter=0;" parent="1" source="131" target="129" edge="1">
                    <mxGeometry width="50" height="50" relative="1" as="geometry">
                        <mxPoint x="740" y="620" as="sourcePoint"/>
                        <mxPoint x="790" y="570" as="targetPoint"/>
                    </mxGeometry>
                </mxCell>
                <mxCell id="138" style="edgeStyle=none;html=1;entryX=0;entryY=1;entryDx=0;entryDy=0;" parent="1" target="131" edge="1">
                    <mxGeometry relative="1" as="geometry">
                        <mxPoint x="726.2791038113442" y="810.0181826343978" as="sourcePoint"/>
                    </mxGeometry>
                </mxCell>
                <mxCell id="140" value="" style="verticalLabelPosition=bottom;verticalAlign=top;html=1;shape=mxgraph.basic.4_point_star_2;dx=0.8;" parent="1" vertex="1">
                    <mxGeometry x="680" y="780" width="100" height="100" as="geometry"/>
                </mxCell>
                <mxCell id="144" style="edgeStyle=none;html=1;exitX=0.29;exitY=0;exitDx=0;exitDy=0;exitPerimeter=0;entryX=0.5;entryY=0;entryDx=0;entryDy=0;entryPerimeter=0;" parent="1" target="140" edge="1">
                    <mxGeometry relative="1" as="geometry">
                        <mxPoint x="659" y="880" as="sourcePoint"/>
                    </mxGeometry>
                </mxCell>
                <mxCell id="143" style="edgeStyle=none;html=1;exitX=0.76;exitY=0;exitDx=0;exitDy=0;exitPerimeter=0;entryX=0.5;entryY=0;entryDx=0;entryDy=0;entryPerimeter=0;" parent="1" target="140" edge="1">
                    <mxGeometry relative="1" as="geometry">
                        <mxPoint x="816" y="880" as="sourcePoint"/>
                    </mxGeometry>
                </mxCell>
                <mxCell id="161" value="http://www.hyperflight.com/images/pentagram_angles.gif" style="text;html=1;" vertex="1" parent="1">
                    <mxGeometry x="180" y="630" width="320" height="20" as="geometry"/>
                </mxCell>
                <mxCell id="162" value="" style="verticalLabelPosition=bottom;verticalAlign=top;html=1;shape=mxgraph.basic.star;fillColor=none;" vertex="1" parent="1">
                    <mxGeometry x="653.68" y="960" width="126.32" height="120" as="geometry"/>
                </mxCell>
                <mxCell id="163" value="" style="whiteSpace=wrap;html=1;shape=mxgraph.basic.cloud_rect;fillColor=none;" vertex="1" parent="1">
                    <mxGeometry x="653.68" y="955" width="126.32" height="130" as="geometry"/>
                </mxCell>
                <mxCell id="164" value="1" style="ellipse;whiteSpace=wrap;html=1;aspect=fixed;fillColor=#d80073;strokeColor=#A50040;fontColor=#ffffff;" vertex="1" parent="1">
                    <mxGeometry x="668.81" y="1065" width="15" height="15" as="geometry"/>
                </mxCell>
                <mxCell id="165" value="2" style="ellipse;whiteSpace=wrap;html=1;aspect=fixed;fillColor=#d80073;strokeColor=#A50040;fontColor=#ffffff;" vertex="1" parent="1">
                    <mxGeometry x="709.3399999999999" y="950" width="15" height="15" as="geometry"/>
                </mxCell>
                <mxCell id="166" value="3" style="ellipse;whiteSpace=wrap;html=1;aspect=fixed;fillColor=#d80073;strokeColor=#A50040;fontColor=#ffffff;" vertex="1" parent="1">
                    <mxGeometry x="749.9999999999999" y="1070" width="15" height="15" as="geometry"/>
                </mxCell>
                <mxCell id="167" value="4" style="ellipse;whiteSpace=wrap;html=1;aspect=fixed;fillColor=#d80073;strokeColor=#A50040;fontColor=#ffffff;" vertex="1" parent="1">
                    <mxGeometry x="649.9999999999999" y="1001.14" width="15" height="15" as="geometry"/>
                </mxCell>
                <mxCell id="168" value="5" style="ellipse;whiteSpace=wrap;html=1;aspect=fixed;fillColor=#d80073;strokeColor=#A50040;fontColor=#ffffff;" vertex="1" parent="1">
                    <mxGeometry x="769.9999999999999" y="1001.14" width="15" height="15" as="geometry"/>
                </mxCell>
                <mxCell id="169" value="m" style="text;html=1;align=center;verticalAlign=middle;resizable=0;points=[];autosize=1;strokeColor=none;" vertex="1" parent="1">
                    <mxGeometry x="650" y="1050" width="30" height="20" as="geometry"/>
                </mxCell>
            </root>
        </mxGraphModel>
    </diagram>
</mxfile>